<?xml version="1.0" encoding="UTF-8" standalone="no"?>
<svg version="1.1" xmlns="http://www.w3.org/2000/svg" xmlns:xlink="http://www.w3.org/1999/xlink">
    <symbol viewBox="0 0 9 17" id="icon-facebook">
        <path fill-rule="evenodd" clip-rule="evenodd" d="M1.78144 3.49677C1.78144 3.95195 1.78144 5.98437 1.78144 5.98437H0V9.02596H1.78144V17H5.44426V9.02596H7.90107C7.90107 9.02596 8.13193 7.56868 8.24219 5.97379C7.92174 5.97379 5.45804 5.97379 5.45804 5.97379C5.45804 5.97379 5.45804 4.206 5.45804 3.89549C5.45804 3.58498 5.85775 3.16509 6.25056 3.16509C6.64337 3.16509 7.47724 3.16509 8.24564 3.16509C8.24564 2.75225 8.24564 1.31967 8.24564 3.06405e-06C7.21881 3.06405e-06 6.04726 3.06405e-06 5.53385 3.06405e-06C1.68841 -0.00352546 1.78144 3.04159 1.78144 3.49677Z"/>
    </symbol>
    <symbol viewBox="0 0 17 17" id="icon-instagram">
        <path d="M12.3983 0H4.60175C2.0643 0 0 2.0643 0 4.60175V12.3984C0 14.9357 2.0643 17 4.60175 17H12.3984C14.9357 17 17 14.9357 17 12.3984V4.60175C17 2.0643 14.9357 0 12.3983 0V0ZM8.5 13.1483C5.93687 13.1483 3.85169 11.0631 3.85169 8.5C3.85169 5.93687 5.93687 3.85169 8.5 3.85169C11.0631 3.85169 13.1483 5.93687 13.1483 8.5C13.1483 11.0631 11.0631 13.1483 8.5 13.1483ZM13.2595 4.94791C12.502 4.94791 11.8859 4.33184 11.8859 3.57439C11.8859 2.81695 12.502 2.20074 13.2595 2.20074C14.0169 2.20074 14.6331 2.81695 14.6331 3.57439C14.6331 4.33184 14.0169 4.94791 13.2595 4.94791Z"/>
        <path d="M8.49984 4.84863C6.48638 4.84863 4.84814 6.48674 4.84814 8.50033C4.84814 10.5138 6.48638 12.152 8.49984 12.152C10.5134 12.152 12.1515 10.5138 12.1515 8.50033C12.1515 6.48674 10.5134 4.84863 8.49984 4.84863Z"/>
        <path d="M13.2592 3.19727C13.0515 3.19727 12.8823 3.36639 12.8823 3.57417C12.8823 3.78195 13.0515 3.95108 13.2592 3.95108C13.4671 3.95108 13.6363 3.78208 13.6363 3.57417C13.6363 3.36626 13.4671 3.19727 13.2592 3.19727Z"/>
    </symbol>
    <symbol viewBox="0 0 13 17" id="icon-twitter">
        <path d="M10.625 12.75H6.375C5.20306 12.75 4.25 11.7969 4.25 10.625V9.5625H10.625C11.798 9.5625 12.75 8.6105 12.75 7.4375C12.75 6.2645 11.798 5.3125 10.625 5.3125H4.25V2.125C4.25 0.952 3.298 0 2.125 0C0.952 0 0 0.952 0 2.125V10.625C0 14.1408 2.85919 17 6.375 17H10.625C11.798 17 12.75 16.048 12.75 14.875C12.75 13.702 11.798 12.75 10.625 12.75Z"/>
    </symbol>
    <symbol viewBox="0 0 20 12" id="icon-vkontakte">
        <path fill-rule="evenodd" clip-rule="evenodd" d="M18.8698 9.09692C18.4413 8.57111 17.951 8.09669 17.48 7.63809C17.314 7.476 17.1403 7.306 16.9704 7.13995C16.4917 6.65763 16.4724 6.47972 16.8546 5.93415C17.1171 5.55857 17.3951 5.18299 17.6653 4.81532C17.9085 4.48323 18.1633 4.14323 18.4066 3.79928L18.4567 3.72811C18.92 3.07184 19.3987 2.39184 19.6536 1.57348C19.7192 1.35604 19.7887 1.03976 19.6304 0.774879C19.4721 0.509997 19.1632 0.426974 18.9432 0.391393C18.8351 0.371625 18.727 0.371625 18.6305 0.371625L15.596 0.367672H15.569C15.1096 0.367672 14.8007 0.589066 14.6231 1.04371C14.4532 1.47859 14.2679 1.94115 14.0556 2.38394C13.6348 3.26161 13.0982 4.27369 12.3222 5.11578L12.2913 5.15136C12.1986 5.2502 12.0944 5.36485 12.021 5.36485C12.0094 5.36485 11.9979 5.36089 11.9824 5.35694C11.8203 5.29369 11.7122 4.89439 11.7199 4.70857C11.7199 4.70462 11.7199 4.70462 11.7199 4.70067L11.716 1.11488C11.716 1.10302 11.716 1.09116 11.7122 1.0793C11.635 0.494183 11.4651 0.130464 10.8165 0.0039534C10.8011 -6.0384e-08 10.7818 0 10.7625 0H7.60444C7.09097 0 6.80528 0.213487 6.5389 0.533717C6.46554 0.620694 6.31884 0.798599 6.39219 1.01209C6.46941 1.22953 6.71263 1.27697 6.78984 1.29278C7.18363 1.3679 7.40755 1.61697 7.46932 2.04789C7.58127 2.79905 7.59286 3.59765 7.51178 4.56625C7.48862 4.83508 7.44615 5.04462 7.36894 5.22252C7.3535 5.26206 7.29173 5.40043 7.22995 5.40043C7.21065 5.40043 7.15274 5.39252 7.0485 5.32136C6.813 5.14741 6.63541 4.90229 6.42694 4.59788C5.71658 3.56998 5.11817 2.43929 4.60471 1.13464C4.41167 0.656275 4.05649 0.387439 3.59708 0.379532C3.09133 0.371625 2.63577 0.367672 2.19952 0.367672C1.72466 0.367672 1.28068 0.371625 0.852149 0.379532C0.481526 0.387439 0.226722 0.498136 0.0954597 0.715577C-0.0396633 0.933017 -0.0319421 1.21767 0.122484 1.56162C1.33087 4.32904 2.43502 6.3374 3.68973 8.08088C4.56996 9.29854 5.45019 10.1446 6.46554 10.7376C7.53495 11.3623 8.73175 11.6667 10.1254 11.6667C10.2837 11.6667 10.4459 11.6627 10.6119 11.6548C11.4226 11.6153 11.7238 11.3148 11.7624 10.5083C11.7817 10.0971 11.8241 9.66226 12.021 9.29459C12.1446 9.06134 12.2643 9.06133 12.3029 9.06133C12.3762 9.06133 12.4689 9.09692 12.5654 9.16017C12.743 9.27878 12.8935 9.43691 13.0171 9.57528C13.1329 9.70575 13.2487 9.84017 13.3645 9.97063C13.6155 10.2553 13.8703 10.5518 14.1405 10.8325C14.7312 11.4453 15.3798 11.7141 16.1249 11.6588H18.9084C18.9162 11.6588 18.92 11.6588 18.9277 11.6588C19.2057 11.639 19.4451 11.4809 19.5879 11.2278C19.7617 10.9116 19.7578 10.5083 19.5802 10.1446C19.3717 9.73342 19.1053 9.38552 18.8698 9.09692Z"/>
    </symbol>
    <symbol viewBox="0 0 22 15" id="icon-youtube">
        <path d="M20.9823 2.34714C20.7354 1.42934 20.0118 0.705842 19.0941 0.458706C17.4176 0 10.7116 0 10.7116 0C10.7116 0 4.00583 0 2.32936 0.441315C1.42934 0.68819 0.688059 1.42947 0.441184 2.34714C0 4.02348 0 7.5 0 7.5C0 7.5 0 10.994 0.441184 12.6529C0.688321 13.5705 1.41168 14.294 2.32949 14.5412C4.02348 15 10.7119 15 10.7119 15C10.7119 15 17.4176 15 19.0941 14.5587C20.0119 14.3117 20.7354 13.5882 20.9825 12.6705C21.4236 10.994 21.4236 7.51765 21.4236 7.51765C21.4236 7.51765 21.4412 4.02348 20.9823 2.34714ZM8.57655 10.7117V4.28827L14.1529 7.5L8.57655 10.7117Z"/>
    </symbol>
    <symbol viewBox="0 0 17 17" id="icon-zen">
        <path fill-rule="evenodd" clip-rule="evenodd" d="M10.1419 10.1419C8.80146 11.5146 8.70718 13.2357 8.5936 16.9992C12.0971 16.9992 14.5244 16.9879 15.7705 15.7706C16.9873 14.5248 16.999 11.9832 16.9993 8.59365C13.2357 8.70722 11.5145 8.80146 10.1419 10.1419ZM0 8.59365C0 11.9832 0.0116584 14.5248 1.22847 15.7706C2.47459 16.9879 4.90222 16.9992 8.40573 16.9992C8.29215 13.2357 8.19787 11.5146 6.85751 10.1419C5.48481 8.80146 3.76369 8.70722 0 8.59365ZM8.40594 0C4.90244 0.000333024 2.4748 0.0119889 1.22868 1.22886C0.0118756 2.4747 0.000217248 5.01634 0.000217248 8.40587C3.7639 8.2923 5.48502 8.19806 6.85772 6.85762C8.19808 5.48492 8.29236 3.76384 8.40594 0ZM10.1419 6.85762C8.80146 5.48492 8.70718 3.76384 8.5936 0C12.0971 0.000333024 14.5244 0.0119889 15.7705 1.22886C16.9873 2.4747 16.999 5.01634 16.9993 8.40587C13.2357 8.2923 11.5145 8.19806 10.1419 6.85762Z"/>
    </symbol>
    <symbol viewBox="0 0 21 14" id="icon-arrow">
        <path fill-rule="evenodd" clip-rule="evenodd" d="M20.1574 6.32634L14.0764 0.277506C13.7064 -0.0925022 13.1112 -0.0925022 12.7251 0.277506C12.3551 0.647515 12.3551 1.24275 12.7251 1.61275L17.1813 6.05286H0.949152C0.41827 6.05286 0 6.47113 0 7.00201C0 7.51681 0.41827 7.95116 0.949152 7.95116H17.1813L12.7251 12.3913C12.3551 12.7613 12.3551 13.3565 12.7251 13.7265C12.9181 13.9035 13.1594 14 13.4007 14C13.6421 14 13.8834 13.9035 14.0764 13.7265L20.1574 7.67768C20.5274 7.30767 20.5274 6.69635 20.1574 6.32634Z"/>
    </symbol>
    <symbol viewBox="0 0 6 8" id="icon-location-pin">
        <path d="M3 0C1.346 0 0 1.35533 0 3.02167C0 5.38933 2.718 7.834 2.83367 7.93667C2.88133 7.979 2.94067 8 3 8C3.05933 8 3.11867 7.979 3.16633 7.937C3.282 7.834 6 5.38933 6 3.02167C6 1.35533 4.654 0 3 0ZM3 4.66667C2.081 4.66667 1.33333 3.919 1.33333 3C1.33333 2.081 2.081 1.33333 3 1.33333C3.919 1.33333 4.66667 2.081 4.66667 3C4.66667 3.919 3.919 4.66667 3 4.66667Z"/>
    </symbol>

    <symbol viewBox="0 0 18 18" id="icon-magnifier">
        <path d="M12.6615 2.16935C9.76903 -0.723115 5.06134 -0.723115 2.16888 2.16935C-0.722959 5.06243 -0.722959 9.7695 2.16888 12.6626C4.74469 15.2378 8.75639 15.5137 11.647 13.5028C11.7078 13.7906 11.847 14.0652 12.0708 14.2891L15.3223 17.5405C15.9362 18.1532 16.9281 18.1532 17.5388 17.5405C18.1521 16.9273 18.1521 15.9354 17.5388 15.324L14.2874 12.0713C14.0648 11.8493 13.7895 11.7095 13.5017 11.6487C15.5138 8.75749 15.2379 4.74641 12.6615 2.16935ZM11.3316 11.3327C9.17211 13.4921 5.65764 13.4921 3.49879 11.3327C1.34058 9.1732 1.34058 5.65936 3.49879 3.49989C5.65764 1.34105 9.17211 1.34105 11.3316 3.49989C13.491 5.65936 13.491 9.1732 11.3316 11.3327Z"/>
    </symbol>
    <symbol viewBox="0 0 18 18" id="icon-bar-chart">
        <path d="M17.4129 0H13.8912C13.567 0 13.3042 0.262793 13.3042 0.586969V15.0652C13.3042 15.3894 13.567 15.6522 13.8912 15.6522H17.4129C17.7371 15.6522 17.9999 15.3894 17.9999 15.0652V0.586969C17.9999 0.262793 17.7371 0 17.4129 0ZM16.826 14.4783H14.4781V1.1739H16.826V14.4783Z"/>
        <path d="M17.413 16.8261H0.586969C0.262793 16.8261 0 17.0889 0 17.413C0 17.7372 0.262793 18 0.586969 18H17.4131C17.7372 18 18 17.7372 18 17.413C18 17.0889 17.7372 16.8261 17.413 16.8261Z"/>
        <path d="M10.7611 5.08697H7.23931C6.91517 5.08697 6.65234 5.34976 6.65234 5.67394V15.0652C6.65234 15.3894 6.91514 15.6522 7.23931 15.6522H10.7611C11.0852 15.6522 11.348 15.3894 11.348 15.0652V5.67394C11.348 5.34976 11.0852 5.08697 10.7611 5.08697ZM10.1741 14.4783H7.82625V6.26087H10.1741V14.4783Z"/>
        <path d="M4.10871 9.78262H0.586969C0.262793 9.78262 0 10.0454 0 10.3696V15.0652C0 15.3894 0.262793 15.6522 0.586969 15.6522H4.10871C4.43285 15.6522 4.69568 15.3894 4.69568 15.0652V10.3696C4.69564 10.0454 4.43285 9.78262 4.10871 9.78262ZM3.52174 14.4783H1.1739V10.9565H3.52174V14.4783Z"/>
    </symbol>
    <symbol viewBox="0 0 18 18" id="icon-rocket">
        <path d="M17.9788 1.34398C17.9399 0.628972 17.3712 0.0603919 16.6562 0.0213686C15.2135 -0.0574514 12.3903 0.0192242 9.69072 1.41552C8.31454 2.12736 6.85907 3.33424 5.69755 4.7267C5.68324 4.74385 5.66932 4.76112 5.65512 4.77831L3.01911 4.98193C2.58521 5.01547 2.19874 5.2429 1.95877 5.60585L0.160391 8.32595C-0.0216122 8.60122 -0.0505457 8.94571 0.0829421 9.24746C0.216465 9.54924 0.490823 9.75954 0.816896 9.81006L3.03774 10.154C3.0299 10.1972 3.02203 10.2403 3.01482 10.2835C2.94089 10.7258 3.08742 11.1805 3.40685 11.4999L6.5003 14.5934C6.76514 14.8582 7.12299 15.0042 7.48967 15.0042C7.56518 15.0042 7.64112 14.998 7.71671 14.9854C7.75988 14.9782 7.80301 14.9703 7.84619 14.9624L8.19015 17.1833C8.24067 17.5094 8.45098 17.7838 8.75269 17.9173C8.87823 17.9728 9.01108 18.0002 9.14334 18.0002C9.32907 18.0002 9.5135 17.9461 9.67423 17.8399L12.3943 16.0415C12.7573 15.8014 12.9847 15.415 13.0182 14.9811L13.2218 12.3451C13.239 12.3309 13.2563 12.317 13.2734 12.3027C14.6659 11.1412 15.8729 9.68572 16.5847 8.30949C17.981 5.60982 18.0576 2.78661 17.9788 1.34398ZM11.8127 15.1616L9.21074 16.8819L8.87549 14.7175C9.97517 14.3942 11.063 13.8764 12.0994 13.1826L11.9667 14.8998C11.9585 15.0069 11.9023 15.1024 11.8127 15.1616ZM7.24607 13.8476L4.15258 10.7541C4.07365 10.6751 4.03716 10.5642 4.05506 10.4574C4.14702 9.90745 4.28993 9.38393 4.46684 8.89077L9.10843 13.5324C8.51612 13.7445 7.98558 13.8711 7.54279 13.9451C7.43577 13.9629 7.325 13.9265 7.24607 13.8476ZM3.10036 6.03349L4.81752 5.90084C4.12375 6.93721 3.6059 8.02505 3.28257 9.12473L1.11822 8.78952L2.83855 6.18754C2.89782 6.09789 2.99327 6.04175 3.10036 6.03349ZM12.598 11.4927C11.746 12.2034 10.919 12.7173 10.1568 13.0892L4.91076 7.84322C5.39795 6.84816 5.99254 6.01957 6.50744 5.40229C7.58234 4.11365 8.91922 3.00197 10.1753 2.35229C12.6529 1.07074 15.2633 1.00173 16.5988 1.07443C16.7756 1.08407 16.9161 1.22466 16.9258 1.40146C16.9986 2.73697 16.9294 5.34731 15.6479 7.82494C14.9982 9.081 13.8866 10.4178 12.598 11.4927Z" fill="white"/>
        <path d="M12.33 8.30543C13.0051 8.30536 13.6804 8.04837 14.1944 7.53442C14.6924 7.03644 14.9666 6.37431 14.9666 5.67006C14.9666 4.96581 14.6923 4.30368 14.1944 3.80569C13.1663 2.77762 11.4936 2.77769 10.4656 3.80569C9.96761 4.30368 9.69336 4.96581 9.69336 5.67006C9.69336 6.37431 9.96765 7.03644 10.4656 7.53442C10.9797 8.04848 11.6547 8.3055 12.33 8.30543ZM11.2113 4.55143C11.5197 4.243 11.9248 4.08881 12.3299 4.08881C12.7351 4.08881 13.1402 4.243 13.4486 4.55143C13.7474 4.85022 13.9119 5.24748 13.9119 5.67002C13.9119 6.09256 13.7474 6.48986 13.4486 6.78866C12.8318 7.40547 11.8281 7.40544 11.2113 6.78866C10.9125 6.48986 10.7479 6.0926 10.7479 5.67006C10.7479 5.24752 10.9125 4.85022 11.2113 4.55143Z" fill="white"/>
        <path d="M0.538066 14.8338C0.673031 14.8338 0.807995 14.7823 0.910932 14.6793L2.63263 12.9576C2.83858 12.7517 2.83858 12.4178 2.63263 12.2118C2.42672 12.0059 2.09281 12.0059 1.88687 12.2118L0.165201 13.9335C-0.0407439 14.1395 -0.0407439 14.4734 0.165201 14.6793C0.268138 14.7823 0.403102 14.8338 0.538066 14.8338Z" fill="white"/>
        <path d="M4.21031 13.7897C4.0044 13.5838 3.67049 13.5838 3.46455 13.7897L0.154458 17.0998C-0.0514861 17.3058 -0.0514861 17.6397 0.154458 17.8456C0.257431 17.9486 0.39236 18 0.527324 18C0.662288 18 0.797253 17.9486 0.90019 17.8456L4.21028 14.5355C4.41626 14.3295 4.41626 13.9957 4.21031 13.7897Z" fill="white"/>
        <path d="M5.04217 15.3676L3.32047 17.0893C3.11453 17.2952 3.11453 17.6291 3.32047 17.8351C3.42345 17.938 3.55841 17.9895 3.69334 17.9895C3.82827 17.9895 3.96327 17.9381 4.0662 17.8351L5.7879 16.1134C5.99385 15.9074 5.99385 15.5735 5.7879 15.3676C5.58199 15.1616 5.24808 15.1616 5.04217 15.3676Z" fill="white"/>
    </symbol>
    <symbol viewBox="0 0 20 18" id="icon-megaphone">
        <path d="M17.1299 5.47044H16.446V0.683679C16.4459 0.305999 16.1397 -8.01202e-05 15.762 1.5732e-08C15.6749 1.5732e-08 15.5886 0.0166682 15.5078 0.0490832L5.40701 4.1028H2.05148C0.918478 4.1028 0 5.02128 0 6.15428V8.8896C0 10.0226 0.918478 10.9411 2.05148 10.9411H2.08566V16.3663C2.08566 16.744 2.39182 17.0501 2.7695 17.0501H5.50482C5.8825 17.0501 6.18866 16.744 6.18866 16.3663V11.2543L15.5079 14.9948C15.5886 15.0276 15.6751 15.0444 15.7623 15.0441C16.1399 15.0441 16.4461 14.7379 16.4461 14.3602V9.57339H17.1299C18.2629 9.57339 19.1814 8.65492 19.1814 7.52192C19.1814 6.38892 18.2629 5.47044 17.1299 5.47044ZM4.82098 15.6825H3.45334V10.9411H4.82098V15.6825ZM4.85515 9.57339H2.05148C1.6738 9.57339 1.36764 9.26724 1.36764 8.88956V6.15424C1.36764 5.77656 1.6738 5.4704 2.05148 5.4704H4.85515V9.57339ZM15.0784 13.3488L6.22283 9.79293V5.2489L15.0784 1.69503V13.3488ZM17.1299 8.20576H16.446V6.83812H17.1299C17.5075 6.83812 17.8137 7.14428 17.8137 7.52196C17.8137 7.89964 17.5075 8.20576 17.1299 8.20576Z" fill="white"/>
    </symbol>
    <symbol viewBox="0 0 18 18" id="icon-settings">
        <path d="M9.00123 5.48205C7.05934 5.48205 5.47949 7.0619 5.47949 9.00378C5.47949 10.9457 7.05934 12.5255 9.00123 12.5255C10.9431 12.5255 12.523 10.9457 12.523 9.00378C12.523 7.0619 10.9431 5.48205 9.00123 5.48205ZM9.00123 11.3516C7.70664 11.3516 6.65339 10.2984 6.65339 9.00378C6.65339 7.70919 7.70664 6.65595 9.00123 6.65595C10.2958 6.65595 11.3491 7.70919 11.3491 9.00378C11.3491 10.2984 10.2958 11.3516 9.00123 11.3516Z"/>
        <path d="M17.413 7.23908H15.822C15.6586 6.60912 15.4027 5.99613 15.0668 5.43008L16.255 4.24198C16.4842 4.01276 16.4842 3.64113 16.255 3.41191L14.588 1.74494C14.3588 1.51576 13.9872 1.51572 13.7579 1.74494L12.5698 2.93305C12.0037 2.5972 11.3907 2.34133 10.7608 2.17789V0.586968C10.7608 0.262828 10.498 0 10.1738 0H7.82601C7.50187 0 7.23904 0.262792 7.23904 0.586968V2.17793C6.60908 2.34133 5.9961 2.5972 5.43005 2.93308L4.24195 1.74501C4.01276 1.51579 3.64109 1.51579 3.41187 1.74501L1.74498 3.41194C1.51576 3.64113 1.51576 4.0128 1.74498 4.24202L2.93305 5.43012C2.5972 5.9962 2.34137 6.60919 2.17789 7.23911H0.586968C0.262792 7.23911 0 7.50191 0 7.82608V10.1739C0 10.4981 0.262792 10.7609 0.586968 10.7609H2.17793C2.34133 11.3908 2.5972 12.0038 2.93308 12.5699L1.74501 13.758C1.51579 13.9872 1.51579 14.3589 1.74501 14.5881L3.41198 16.2551C3.52205 16.3651 3.67133 16.427 3.827 16.427C3.98267 16.427 4.13198 16.3651 4.24202 16.2551L5.43008 15.067C5.99624 15.4028 6.60922 15.6587 7.23911 15.8221V17.413C7.23911 17.7372 7.50191 18 7.82608 18H10.1739C10.4981 18 10.7609 17.7372 10.7609 17.413V15.822C11.3909 15.6586 12.0038 15.4028 12.5699 15.0669L13.758 16.255C13.987 16.4841 14.3588 16.4842 14.588 16.255L16.255 14.588C16.4841 14.359 16.4842 13.9871 16.255 13.758L15.0669 12.5698C15.4028 12.0038 15.6586 11.3908 15.8221 10.7608H17.4131C17.7372 10.7608 18.0001 10.498 18.0001 10.1738V7.82601C18 7.50187 17.7372 7.23908 17.413 7.23908ZM16.8261 9.58695H15.3508C15.0672 9.58695 14.8241 9.7898 14.7734 10.0689C14.6291 10.8626 14.3047 11.6398 13.8355 12.3163C13.6737 12.5496 13.702 12.8652 13.9028 13.0659L15.0099 14.173L14.173 15.0099L13.0659 13.9028C12.8652 13.7021 12.5496 13.6737 12.3163 13.8355C11.6398 14.3048 10.8626 14.6291 10.0689 14.7734C9.78984 14.8241 9.58695 15.0672 9.58695 15.3508V16.8261H8.41305V15.3508C8.41305 15.0671 8.21016 14.8241 7.93113 14.7734C7.13744 14.6291 6.36025 14.3047 5.68359 13.8355C5.4503 13.6736 5.13481 13.7021 4.9341 13.9028L3.827 15.0099L2.9901 14.173L4.09721 13.0659C4.29795 12.8652 4.32628 12.5496 4.1645 12.3164C3.6952 11.6397 3.37092 10.8626 3.22663 10.0689C3.1759 9.78984 2.9328 9.58695 2.64916 9.58695H1.1739V8.41305H2.64912C2.93276 8.41305 3.17587 8.2102 3.2266 7.93113C3.37092 7.13741 3.69527 6.36025 4.16446 5.68367C4.32621 5.4504 4.29788 5.13488 4.09717 4.93413L2.99007 3.827L3.82696 2.9901L4.9341 4.09721C5.13481 4.29795 5.45037 4.32628 5.68363 4.16446C6.36014 3.6952 7.13727 3.37088 7.93109 3.22663C8.21013 3.1759 8.41302 2.93283 8.41302 2.64916V1.1739H9.58692V2.64912C9.58692 2.93283 9.7898 3.17587 10.0688 3.2266C10.8626 3.37092 11.6397 3.6952 12.3163 4.16443C12.5496 4.32618 12.8652 4.29784 13.0658 4.09717L14.173 2.99007L15.0099 3.82696L13.9027 4.9341C13.702 5.13481 13.6736 5.45037 13.8355 5.68363C14.3047 6.36021 14.629 7.13734 14.7733 7.93109C14.8241 8.21016 15.0672 8.41302 15.3508 8.41302H16.826V9.58695H16.8261Z"/>
    </symbol>
    <symbol viewBox="0 0 18 18" id="icon-pencil">
        <path d="M13.1393 9.10299L17.1213 5.12099C17.6879 4.55438 17.9999 3.80109 17.9999 2.99984C17.9999 2.19856 17.6879 1.44524 17.1213 0.878694C16.5548 0.312046 15.8014 0 15.0001 0C14.1989 0 13.4456 0.312046 12.879 0.878658L8.897 4.86066L4.41803 0.381761C4.18375 0.14748 3.80382 0.14748 3.5695 0.381761L0.175737 3.77556C-0.058579 4.00984 -0.058579 4.38978 0.175737 4.62409L4.65463 9.10299L1.37572 12.3819C1.2982 12.4594 1.24336 12.5567 1.21727 12.6632L0.114143 17.1602C0.0641512 17.3639 0.124233 17.579 0.272592 17.7274C0.386463 17.8413 0.539639 17.9031 0.696892 17.9031C0.744459 17.9031 0.792482 17.8974 0.839802 17.8858L5.33673 16.7827C5.44322 16.7566 5.54054 16.7018 5.61805 16.6242L8.89697 13.3453L13.3759 17.8243C13.4931 17.9414 13.6466 18 13.8001 18C13.9536 18 14.1073 17.9414 14.2244 17.8243L17.6182 14.4305C17.8525 14.1962 17.8525 13.8162 17.6182 13.5819L13.1393 9.10299ZM13.7275 1.72715C14.0675 1.38726 14.5194 1.20002 15.0001 1.20002C15.4809 1.20002 15.9328 1.38726 16.2728 1.72722C16.6127 2.06711 16.7999 2.51908 16.7999 2.99981C16.7999 3.48053 16.6127 3.93247 16.2728 4.27243L15.9189 4.62631L13.3736 2.08104L13.7275 1.72715ZM1.44853 4.19979L3.99377 1.65452L6.44528 4.10603L5.77264 4.77867C5.53832 5.01296 5.53832 5.39289 5.77264 5.6272C5.88981 5.74438 6.04337 5.80295 6.19687 5.80295C6.35039 5.80295 6.50399 5.74434 6.6211 5.6272L7.2937 4.9546L8.0483 5.70919L5.50302 8.25446L1.44853 4.19979ZM5.92736 9.52733C5.92736 9.52733 5.92739 9.52729 5.92743 9.52729L9.32123 6.13349C9.32134 6.13338 9.32144 6.13324 9.32151 6.13317L12.5251 2.92956L13.3734 3.77792L3.49687 13.6545L2.64852 12.8062L5.92736 9.52733ZM1.51543 16.4845L2.12891 13.9837L4.0163 15.871L1.51543 16.4845ZM5.19375 15.3514L4.3454 14.5031L14.222 4.62645L15.0704 5.4748L5.19375 15.3514ZM13.8002 16.5514L9.74546 12.4968L10.7696 11.4726L12.2907 9.95155L13.0453 10.7061L12.3726 11.3788C12.1383 11.6131 12.1383 11.993 12.3726 12.2273C12.4898 12.3445 12.6434 12.4031 12.7969 12.4031C12.9504 12.4031 13.104 12.3445 13.2211 12.2273L13.8937 11.5547L16.3453 14.0062L13.8002 16.5514Z"/>
    </symbol>
    <symbol viewBox="0 0 16 18" id="icon-notepad">
        <path d="M14.6739 1.1739H10.5652V0.586968C10.5652 0.262828 10.3024 0 9.97824 0H5.2826C4.95846 0 4.69564 0.262792 4.69564 0.586968V1.17394H0.586968C0.262828 1.17394 0 1.43673 0 1.7609V17.413C0 17.7372 0.262792 18 0.586968 18H14.6739C14.998 18 15.2609 17.7372 15.2609 17.413V1.76087C15.2608 1.43673 14.998 1.1739 14.6739 1.1739ZM5.86957 1.1739H9.39131V2.3478H5.86957V1.1739ZM14.0869 16.8261H1.17394V2.34784H4.69567V2.9348C4.69567 3.25894 4.95846 3.52177 5.28264 3.52177H9.97827C10.3024 3.52177 10.5652 3.25898 10.5652 2.9348V2.34784H14.087V16.8261H14.0869Z"/>
        <path d="M4.10852 11.3478C3.13758 11.3478 2.34766 12.1377 2.34766 13.1087C2.34766 14.0796 3.13758 14.8695 4.10852 14.8695C5.07947 14.8695 5.86939 14.0796 5.86939 13.1087C5.86939 12.1377 5.07947 11.3478 4.10852 11.3478ZM4.10852 13.6956C3.78488 13.6956 3.52156 13.4323 3.52156 13.1086C3.52156 12.785 3.78488 12.5217 4.10852 12.5217C4.43217 12.5217 4.69549 12.785 4.69549 13.1086C4.69549 13.4323 4.43217 13.6956 4.10852 13.6956Z"/>
        <path d="M4.10852 5.47824C3.13758 5.47824 2.34766 6.26817 2.34766 7.23911C2.34766 8.21005 3.13758 8.99998 4.10852 8.99998C5.07947 8.99998 5.86939 8.21005 5.86939 7.23911C5.86939 6.26817 5.07947 5.47824 4.10852 5.47824ZM4.10852 7.82604C3.78488 7.82604 3.52156 7.56272 3.52156 7.23907C3.52156 6.91543 3.78488 6.65211 4.10852 6.65211C4.43217 6.65211 4.69549 6.91543 4.69549 7.23907C4.69549 7.56272 4.43217 7.82604 4.10852 7.82604Z"/>
        <path d="M12.3261 6.65215H7.63042C7.30628 6.65215 7.04346 6.91494 7.04346 7.23911C7.04346 7.56325 7.30625 7.82608 7.63042 7.82608H12.3261C12.6502 7.82608 12.913 7.56329 12.913 7.23911C12.913 6.91497 12.6502 6.65215 12.3261 6.65215Z"/>
        <path d="M12.3261 12.5217H7.63042C7.30628 12.5217 7.04346 12.7845 7.04346 13.1087C7.04346 13.4329 7.30625 13.6956 7.63042 13.6956H12.3261C12.6502 13.6956 12.913 13.4329 12.913 13.1087C12.913 12.7845 12.6502 12.5217 12.3261 12.5217Z"/>
    </symbol>
    <symbol viewBox="0 0 16 18" id="icon-notebook">
        <path d="M12.3262 13.3043H5.28277C4.95863 13.3043 4.6958 13.5671 4.6958 13.8913C4.6958 14.2155 4.95859 14.4783 5.28277 14.4783H12.3262C12.6504 14.4783 12.9132 14.2155 12.9132 13.8913C12.9132 13.5671 12.6504 13.3043 12.3262 13.3043Z"/>
        <path d="M14.6739 0H12.3261H8.41305H0.586968C0.262828 0 0 0.262792 0 0.586968V17.413C0 17.7372 0.262792 18 0.586968 18H14.6739C14.998 18 15.2609 17.7372 15.2609 17.413V0.586968C15.2608 0.262792 14.998 0 14.6739 0ZM9.00002 1.1739H11.7391V4.83528L10.8205 3.73288C10.709 3.59911 10.5438 3.5217 10.3696 3.5217C10.1953 3.5217 10.0301 3.59911 9.91865 3.73288L8.99998 4.83528V1.1739H9.00002ZM2.34784 16.8261H1.17394V1.1739H2.34784V16.8261ZM14.087 16.8261H14.0869H3.52174V1.1739H7.82608V6.4565C7.82608 6.70362 7.98084 6.92426 8.21322 7.00839C8.44571 7.09255 8.70576 7.02203 8.86396 6.83222L10.3695 5.02554L11.8752 6.83225C11.9889 6.96873 12.1553 7.04347 12.3262 7.04347C12.393 7.04347 12.4606 7.03201 12.5259 7.00842C12.7582 6.92429 12.913 6.70365 12.913 6.45654V1.1739H14.0869V16.8261H14.087Z"/>
        <path d="M11.1522 10.9565H6.4566C6.13246 10.9565 5.86963 11.2193 5.86963 11.5435C5.86963 11.8676 6.13242 12.1304 6.4566 12.1304H11.1522C11.4764 12.1304 11.7392 11.8676 11.7392 11.5435C11.7392 11.2193 11.4764 10.9565 11.1522 10.9565Z"/>
    </symbol>
    <symbol viewBox="0 0 13 10.39991" id="icon-case">
        <path d="M13,.43334A.43334.43334,0,0,0,12.5667,0H.43334A.43334.43334,0,0,0,0,.43334V3.64388a.43331.43331,0,0,0,.33542.42249L4.33335,5.07689V4.76664A.86669.86669,0,0,1,5.2,3.9H7.8a.86669.86669,0,0,1,.86668.86668v.30982l3.9866-1.00834A.43322.43322,0,0,0,13,3.64388ZM5.2,4.7666H7.8V6.49991H5.2ZM.86668,5.09424V9.53331a.86665.86665,0,0,0,.86668.8666H11.2667a.8667.8667,0,0,0,.8667-.8666V5.09424l-3.4667.87663V6.5A.86669.86669,0,0,1,7.8,7.36663H5.2A.86669.86669,0,0,1,4.33335,6.5V5.97087Z"/>
    </symbol>
    <symbol viewBox="0 0 13 13" id="icon-tg">
        <path d="M5.82291,7.11784l.75037,1.81172,1.8328-4.39489L4.01119,6.36749Zm5.27329-5.214A6.5,6.5,0,0,0,1.90379,11.0962,6.5,6.5,0,0,0,11.0962,1.90379ZM6.5,12.025,4.82083,8.01667.86667,6.3375,10.4542,2.54583Z"/>
    </symbol>
    <symbol viewBox="0 0 16.0008 16.0006" id="icon-rocket">
        <path d="M4.07,4.32129l-1.38618.10709a1.2369,1.2369,0,0,0-.94256.55462L.14257,7.40086A.8568.8568,0,0,0,.72616,8.7201l1.26921.19656A11.36528,11.36528,0,0,1,4.07,4.32129ZM7.084,14.0052l.1966,1.2693a.85607.85607,0,0,0,1.31924.5835l2.41788-1.5986a1.23679,1.23679,0,0,0,.5546-.9426l.1071-1.3861A11.36458,11.36458,0,0,1,7.084,14.0052Zm-.47766-.8806a.80289.80289,0,0,0,.13259-.011,9.17762,9.17762,0,0,0,1.9033-.5397L3.42568,7.35742A9.1833,9.1833,0,0,0,2.886,9.26072a.81785.81785,0,0,0,.23031.71187L6.027,12.8833A.82068.82068,0,0,0,6.60632,13.1246ZM14.725,7.09379a12.63893,12.63893,0,0,0,1.2571-6.299A.82165.82165,0,0,0,15.206.01872C15.0068.00784,14.7708,0,14.5048,0A12.38381,12.38381,0,0,0,8.907,1.2758,12.73386,12.73386,0,0,0,3.8418,6.45264a.47289.47289,0,0,1,.04347.038l5.625,5.625a.46763.46763,0,0,1,.03794.0434A12.7344,12.7344,0,0,0,14.725,7.09379ZM9.30379,3.38247a2.34365,2.34365,0,1,1-.6865,1.65727A2.34636,2.34636,0,0,1,9.30379,3.38247ZM9.96656,6.0347a1.40622,1.40622,0,1,0-.41187-.99437A1.40783,1.40783,0,0,0,9.96656,6.0347Zm-9.488,7.151A.46731.46731,0,0,0,.81,13.0484L2.34038,11.518a.46874.46874,0,0,0-.66291-.6629L.14706,12.3855a.46875.46875,0,0,0,.33147.8002Zm3.264-.9283a.46885.46885,0,0,0-.66291,0L.1373,15.1998a.46871.46871,0,0,0,.6629.6628l2.94232-2.9423A.4687.4687,0,0,0,3.74255,12.2574Zm.73958,1.4024L2.95175,15.1902a.46873.46873,0,1,0,.66288.6629L5.145,14.3227a.46874.46874,0,0,0-.6629-.6629Z"/>
    </symbol>
    <symbol viewBox="0 0 12.4787 15.9999" id="icon-sheet">
        <path d="M9.79688,13.6697v2.3297l2.68082-3.2553-1.8085.0532A.86286.86286,0,0,0,9.79688,13.6697ZM11.5957,0H.87234A.86945.86945,0,0,0,0,.87234V15.1276a.87627.87627,0,0,0,.87234.8723H8.92549V12.8935a.87626.87626,0,0,1,.87233-.8723H12.4787V.87234A.87864.87864,0,0,0,11.5957,0Zm-4,14.7552H1.617c-.19149,0-.34042-.117-.34042-.2446v-.4149c0-.1383.14893-.2447.34042-.2447h5.9787c.19148,0,.34042.117.34042.2447v.4149C7.93613,14.6489,7.78719,14.7552,7.59571,14.7552Zm0-1.7978H1.617c-.19149,0-.34042-.117-.34042-.2447v-.4149c0-.1383.14893-.2447.34042-.2447h5.9787c.19148,0,.34042.117.34042.2447v.4149C7.93613,12.8404,7.78719,12.9574,7.59571,12.9574Zm3.07449-1.8192H1.617c-.19149,0-.34042-.1063-.34042-.2446v-.4149c0-.1383.14893-.2553.34042-.2553H10.6702c.1914,0,.3404.117.3404.2553v.4149C11.0106,11.0319,10.8616,11.1382,10.6702,11.1382Zm0-1.78718H1.617c-.19149,0-.34042-.117-.34042-.24468v-.4149c0-.13829.14893-.24468.34042-.24468H10.6702c.1914,0,.3404.117.3404.24468v.4149C11.0106,9.234,10.8616,9.351,10.6702,9.351Zm0-1.80851H1.617c-.19149,0-.34042-.117-.34042-.24468V6.88294c0-.13829.14893-.24468.34042-.24468H10.6702c.1914,0,.3404.117.3404.24468v.41489C11.0106,7.42549,10.8616,7.54251,10.6702,7.54251Zm0-1.8085H1.617c-.19149,0-.34042-.117-.34042-.24468V5.07444c0-.1383.14893-.24468.34042-.24468H10.6702c.1914,0,.3404.117.3404.24468v.41489C11.0106,5.62763,10.8616,5.734,10.6702,5.734Zm0-1.79786H1.617c-.19149,0-.34042-.117-.34042-.24468V3.27658c0-.1383.14893-.24468.34042-.24468H10.6702c.1914,0,.3404.117.3404.24468v.41489C11.0106,3.81913,10.8616,3.93615,10.6702,3.93615Zm0-1.8085H1.617c-.19149,0-.34042-.117-.34042-.24468V1.46808c0-.1383.14893-.24468.34042-.24468H10.6702c.1914,0,.3404.117.3404.24468V1.883C11.0106,2.02127,10.8616,2.12765,10.6702,2.12765Z"/>
    </symbol>
    <symbol viewBox="0 0 13 16" id="icon-hourglass">
        <path d="M8.61422 6.33759C9.67503 5.37044 11.1096 4.06241 11.2403 0.9375H12.1875V0H0V0.9375H0.947156C1.07791 4.06241 2.51247 5.37044 3.57328 6.33759C4.28487 6.98637 4.6875 7.38347 4.6875 8C4.6875 8.61653 4.28487 9.01363 3.57328 9.66241C2.51247 10.6296 1.07791 11.9376 0.947156 15.0625H0V16H12.1875V15.0625H11.2403C11.1096 11.9376 9.67503 10.6296 8.61422 9.66241C7.90262 9.01363 7.5 8.61653 7.5 8C7.5 7.38347 7.90262 6.98637 8.61422 6.33759ZM5.625 11.5137C5.48022 11.5436 5.33719 11.587 5.19759 11.6448L2.32644 12.8329C2.79531 11.6407 3.5505 10.9518 4.20491 10.3552C4.93522 9.68937 5.625 9.06047 5.625 8V11.5137ZM7.98259 10.3552C8.637 10.9518 9.39216 11.6407 9.86106 12.8328L6.98991 11.6447C6.85031 11.587 6.70728 11.5435 6.5625 11.5137V8C6.5625 9.06047 7.25228 9.68937 7.98259 10.3552ZM2.30997 3.125C2.08331 2.53441 1.92678 1.82131 1.88581 0.9375H10.3017C10.2607 1.82131 10.1042 2.53441 9.8775 3.125H2.30997Z"></path>
    </symbol>


    <symbol viewBox="0 0 16.00101 16" id="icon-target">
        <path d="M7.66343,7.67766l.00607-.0091,2.6751-2.67517V3.31247a.46881.46881,0,0,1,.1373-.33144L13.2945.1373a.46877.46877,0,0,1,.8002.33144V1.875h1.4375a.46865.46865,0,0,1,.3313.80016L13.0198,5.51889a.46834.46834,0,0,1-.3314.13735H11.0075L8.33231,8.33138l-.00909.00606a.46666.46666,0,0,1-.65979-.65978ZM8,0A7.93,7.93,0,0,1,11.3547.78182l-1.438,1.43794A6.10884,6.10884,0,1,0,13.7803,6.08325l1.4379-1.43794A7.9309,7.9309,0,0,1,16,8,8,8,0,1,1,8,0Zm.001,3.78076a4.16939,4.16939,0,0,1,1.40626.25916v.56482L8.32358,5.6884a2.30686,2.30686,0,0,0-.3226-.03263A2.34377,2.34377,0,1,0,10.3447,7.99954a2.30293,2.30293,0,0,0-.0326-.3226l1.0837-1.08369h.5648a4.16906,4.16906,0,0,1,.2591,1.40626A4.21875,4.21875,0,1,1,8.001,3.78076Z" transform="translate(0)"/>
    </symbol>
    <symbol viewBox="0 0 16.6381 16" id="icon-monitor">
        <path d="M15.9636,0H.67452A.68769.68769,0,0,0,0,.70013V12.8818a.68773.68773,0,0,0,.67452.7002h5.381L5.48,14.7871H4.78265a.32682.32682,0,0,0-.32067.3327v.5474A.32691.32691,0,0,0,4.78265,16H11.8555a.32693.32693,0,0,0,.3207-.3328v-.5474a.32678.32678,0,0,0-.3207-.3327h-.6974l-.5756-1.2051h5.3811a.68773.68773,0,0,0,.6745-.7002V.70013A.68769.68769,0,0,0,15.9636,0Zm-.6745,10.7148a.3.3,0,0,1-.3.3H1.649a.3.3,0,0,1-.3-.3v-9.092a.3.3,0,0,1,.3-.3H14.9891a.3.3,0,0,1,.3.3ZM2.694,2.23633a.28536.28536,0,0,0-.28536.28536V9.81782a.28538.28538,0,0,0,.28536.28538H13.9439a.28541.28541,0,0,0,.2854-.28538V2.52169a.28539.28539,0,0,0-.2854-.28536ZM7.18032,3.64307a1.73552,1.73552,0,0,1,1.31753-.46652A1.75106,1.75106,0,0,1,9.13033,6.5029a.42965.42965,0,0,0-.234.39032.52152.52152,0,1,1-1.043,0,1.47767,1.47767,0,0,1,.82656-1.3311.70785.70785,0,1,0-1.01276-.63887.52153.52153,0,0,1-1.043,0A1.75739,1.75739,0,0,1,7.18032,3.64307ZM7.8529,8.321a.52153.52153,0,1,1,1.043,0v.325a.52153.52153,0,0,1-1.043,0Z"/>
    </symbol>
    <symbol viewBox="0 0 14.8065 16" id="icon-who">
        <path d="M12.6382,10.2908A7.369,7.369,0,0,0,9.65691,8.4705a4.53551,4.53551,0,1,0-4.50725,0A7.41356,7.41356,0,0,0,0,15.5257.47435.47435,0,0,0,.47431,16H14.3322a.47436.47436,0,0,0,.4743-.4743A7.35428,7.35428,0,0,0,12.6382,10.2908ZM7.40338,7.03075a.47431.47431,0,1,1,.47431-.47431A.48257.48257,0,0,1,7.40338,7.03075Zm.47425-2.124v.32166a.47432.47432,0,0,1-.94863,0V4.51084a.47434.47434,0,0,1,.47431-.47431.52381.52381,0,1,0-.52378-.52381.47431.47431,0,0,1-.94862,0,1.47241,1.47241,0,1,1,1.94672,1.394Z"/>
    </symbol>
    <symbol viewBox="0 0 15.94016 16" id="icon-loupe">
        <path d="M.53865,12.6085,3.17207,9.97506a7.26489,7.26489,0,0,1-.798-3.192,6.783,6.783,0,1,1,6.783,6.78306,7.265,7.265,0,0,1-3.192-.798L3.33167,15.4015a1.92852,1.92852,0,0,1-2.793,0A2.0796,2.0796,0,0,1,.53865,12.6085Zm8.61846-.6384A5.187,5.187,0,1,0,3.97008,6.783,5.17672,5.17672,0,0,0,9.15711,11.9701Zm.12676-8.49294a1.92082,1.92082,0,0,0-1.45823.51634,1.94507,1.94507,0,0,0-.6157,1.4169.57722.57722,0,1,0,1.15443,0,.78371.78371,0,0,1,.84013-.7815.78361.78361,0,0,1,.28079,1.48859,1.63553,1.63553,0,0,0-.91483,1.47327.57722.57722,0,0,0,1.15444,0,.47557.47557,0,0,1,.259-.432,1.93807,1.93807,0,0,0-.7-3.68158Zm-.13655,5.1169a.57737.57737,0,0,0-.57722.57722V9.531a.57722.57722,0,0,0,1.15444,0V9.17128A.57726.57726,0,0,0,9.14732,8.59406Z"/>
    </symbol>
    <symbol viewBox="0 0 15.98114 16" id="icon-tech">
        <path d="M2.82726,5.649a2.82491,2.82491,0,0,0,.73065-.09574L5.33647,7.33178,7.32878,5.334,5.553,3.55819A2.8328,2.8328,0,0,0,2.82722.00617,2.82147,2.82147,0,0,0,2.82726,5.649ZM2.08372,2.08406,3.0994,1.81189l.74351.74353L3.57076,3.571l-1.01565.27218-.7435-.74348ZM13.1725,10.3513a2.82572,2.82572,0,0,0-.7307.0958c-.1857-.1858-1.4694-1.46938-1.788-1.788L8.6615,10.6569l1.7852,1.7852a2.82145,2.82145,0,1,0,2.7258-2.0908Zm.7435,3.565-1.0157.2722-.7435-.7436.2721-1.0156,1.0157-.2722.7435.7436ZM12.4235,5.55268a2.82926,2.82926,0,0,0,3.2766-3.9416L14.1512,3.15992l-.9975-.33246-.3325-.99753L14.37.28109a2.82923,2.82923,0,0,0-3.9416,3.27656L3.55764,10.4473A2.82924,2.82924,0,0,0,.28105,14.3889L1.82992,12.84l.99753.3326.33252.9975L1.6111,15.7189a2.82924,2.82924,0,0,0,3.9416-3.2766Z"/>
    </symbol>
    <symbol viewBox="0 0 13.27133 16.00003" id="icon-money">
        <path d="M7.7239,10.6284a.76011.76011,0,0,0-.21347-.1552,2.5719,2.5719,0,0,0-.54083-.191v1.4312a1.01673,1.01673,0,0,0,.8014-.4225.654.654,0,0,0,.05948-.4468A.44911.44911,0,0,0,7.7239,10.6284Zm.04551.6652.00158-.0027Zm-2.206-2.95322a.53666.53666,0,0,0-.09281.25165.60355.60355,0,0,0,.03068.27811.44623.44623,0,0,0,.17319.19057,1.35233,1.35233,0,0,0,.25737.13283c.07511.03023.15959.05915.25066.08708V7.9855A.98836.98836,0,0,0,5.56342,8.34038ZM7.77691,11.2803l-.00591.0105Zm.00757-.0134ZM7.47384,3.48134C8.691,2.45887,9.50427.15541,9.00377.05466A12.09442,12.09442,0,0,0,6.1966.61141c-.99.11953-2.06827-1.07356-2.67351-.40853C3.031.74359,3.8759,2.71,5.19778,3.56665,1.254,5.505-4.28925,15.2354,5.38124,15.9415,18.762,16.9184,12.0618,5.37018,7.47384,3.48134ZM8.623,11.1552a1.40643,1.40643,0,0,1-.54271.9553,2.074,2.074,0,0,1-1.11071.3924v.4191a.39354.39354,0,1,1-.78708,0v-.4581c-.06781-.0129-.13513-.0282-.20165-.0464a1.93279,1.93279,0,0,1-.96276-.5923,1.73594,1.73594,0,0,1-.29674-.4904c-.01838-.0467-.03475-.0943-.0491-.1424a.73183.73183,0,0,1-.031-.1333.39353.39353,0,0,1,.7651-.1633c.015.0453.02515.0918.042.1367a.87811.87811,0,0,0,.0605.1292,1.00382,1.00382,0,0,0,.17281.2212,1.17245,1.17245,0,0,0,.50088.2729V10.0985a2.80123,2.80123,0,0,1-1.032-.446,1.20067,1.20067,0,0,1-.34841-.41854,1.31005,1.31005,0,0,1-.1216-.56345A1.34249,1.34249,0,0,1,4.79837,8.1a1.39087,1.39087,0,0,1,.32295-.44305,1.97124,1.97124,0,0,1,1.0612-.4703V6.75151a.39355.39355,0,1,1,.78709,0v.43273q.07719.00972.15383.0235A1.94394,1.94394,0,0,1,8.151,7.70643a1.50187,1.50187,0,0,1,.31459.45213,1.4408,1.4408,0,0,1,.05561.144.8747.8747,0,0,1,.037.14035.39359.39359,0,0,1-.75671.199c-.01649-.043-.02473-.08851-.04156-.13139a.694.694,0,0,0-.0643-.12394.75074.75074,0,0,0-.18591-.195,1.27574,1.27574,0,0,0-.54026-.2111V9.47065a4.99815,4.99815,0,0,1,.67229.19958,1.57161,1.57161,0,0,1,.82037.64237c-.02786-.0489-.055-.0965.00094.0016.05489.0964.02869.0505.00113.0022A1.40374,1.40374,0,0,1,8.623,11.1552Zm-.85772.1457-.00587.0105Z"/>
    </symbol>
    <symbol viewBox="0 0 16.0018 16.00002" id="icon-question">
        <path d="M8.21072,0A7.7997,7.7997,0,0,0,.41957,7.79114,7.71,7.71,0,0,0,.6495,9.66287,7.37731,7.37731,0,0,1,.09067,14.7496a.86648.86648,0,0,0,1.16579,1.1591,7.39,7.39,0,0,1,5.08421-.5563,7.68061,7.68061,0,0,0,1.87.2299A7.79115,7.79115,0,0,0,8.21072,0Zm0,12.1196a.8657.8657,0,1,1,.86568-.8657A.86571.86571,0,0,1,8.21072,12.1196Zm.87665-3.61409a.93813.93813,0,0,1-.87077.94094A.80871.80871,0,0,1,7.345,8.65683,1.80214,1.80214,0,0,1,8.50315,6.8756.86611.86611,0,1,0,7.345,6.05978a.86569.86569,0,0,1-1.73137,0A2.597,2.597,0,1,1,9.08737,8.50551Z"/>
    </symbol>
    <symbol viewBox="0 0 11.6733 15.9998" id="icon-bulb">
        <path d="M5.83546,0A5.74364,5.74364,0,0,0,.1756,4.36286,5.8194,5.8194,0,0,0,1.737,9.94986a2.95521,2.95521,0,0,1,.81146,1.70654H9.12494A3.11566,3.11566,0,0,1,9.97631,9.908,5.80614,5.80614,0,0,0,5.83546,0Zm0,9.72874a.64865.64865,0,1,1,.64865-.64865A.64866.64866,0,0,1,5.83546,9.72874Zm.719-2.75039-.07031.13747a.64865.64865,0,0,1-1.2973,0A1.41449,1.41449,0,0,1,6.0749,5.7729a.64873.64873,0,1,0-.88809-.603.64865.64865,0,1,1-1.2973,0A1.946,1.946,0,1,1,6.55442,6.97835Zm-3.747,6.91575H8.78494v-1.26H2.80737Zm.35114,2.1057H8.42272v-1.26H3.15851Z"/>
    </symbol>
    <symbol viewBox="0 0 16 15.99999" id="icon-question-monitor">
        <path d="M12.25,4.6875V.9375A1.86365,1.86365,0,0,1,12.5022,0H3.28125A1.40437,1.40437,0,0,0,1.875,1.40625V11.71879a.4642.4642,0,0,0,.46875.4687H11.7812a.4642.4642,0,0,0,.4688-.4687s0-3.90525.002-7.03129ZM7.0625,1.875a1.40588,1.40588,0,0,1,.47813,2.7281.51375.51375,0,0,1-.47813.51562.43925.43925,0,0,1-.46875-.43122.97921.97921,0,0,1,.62813-.96565.46866.46866,0,1,0-.62813-.4406.46875.46875,0,0,1-.9375,0A1.40437,1.40437,0,0,1,7.0625,1.875Zm.46875,4.21875A.46875.46875,0,1,1,7.0625,5.625.4642.4642,0,0,1,7.53125,6.09375ZM8.9375,10.31249H5.15625a.46875.46875,0,1,1,0-.93749H8.9375a.46875.46875,0,1,1,0,.93749Zm.9375-1.875H4.21875a.46875.46875,0,0,1,0-.9375H9.875a.46875.46875,0,1,1,0,.9375ZM13.1875,1.875h1.875V.957a.95016.95016,0,0,0-.9112-.95663.93747.93747,0,0,0-.9638.93713Zm0,.93751v8.90629a1.40779,1.40779,0,0,1-1.4063,1.4062H2.34375A1.40779,1.40779,0,0,1,.9375,11.71879V2.8125H.46875A.46849.46849,0,0,0,0,3.28125V13.59379a.46844.46844,0,0,0,.46875.4687H5.625v1H4.21875a.46875.46875,0,1,0,0,.9375H11.7812a.46875.46875,0,1,0,0-.9375H10.375v-1h5.1562A.46847.46847,0,0,0,16,13.59379V2.8125Z"/>
    </symbol>
    <symbol viewBox="0 0 18.2036 16" id="icon-megaphone">
        <path d="M16.0704.534V14.4a.53349.53349,0,0,1-.9106.3773c-.0391-.0395-3.8764-3.7471-7.69349-4.0777V4.23482C11.2898,3.90452,15.1207.19625,15.1598.15678A.53347.53347,0,0,1,16.0704.534Zm2.1332,6.93292A2.1343,2.1343,0,0,1,17.137,9.314V5.6199A2.1343,2.1343,0,0,1,18.2036,7.46693ZM8.27882,13.648a.53251.53251,0,0,0,.07708-.4771,7.85629,7.85629,0,0,1-.307-1.3138,5.73761,5.73761,0,0,0-1.08134-.1214,7.42024,7.42024,0,0,0,.17592,1.0644H6.3519a10.8575,10.8575,0,0,1-.29375-1.0666H3.19987a4.19134,4.19134,0,0,1-.42167-.0426,18.22784,18.22784,0,0,0,.993,3.9737A.53356.53356,0,0,0,4.26649,16H6.933a.53332.53332,0,0,0,.45726-.8072,12.9903,12.9903,0,0,1-.6425-1.326H7.84808A.53354.53354,0,0,0,8.27882,13.648Zm-5.079-2.9811H6.39971V4.26724H3.19985a3.19983,3.19983,0,1,0,0,6.39966Z"/>
    </symbol>
</svg>