<svg width="190" height="37" viewBox="0 0 190 37" fill="none" xmlns="http://www.w3.org/2000/svg">
    <path fill-rule="evenodd" clip-rule="evenodd" d="M49.5104 20.0961H49.0924C49.0089 20.0961 48.9531 20.124 48.9253 20.1518C48.8974 20.1797 48.8417 20.2354 48.8138 20.2633L45.0522 24.7215L44.3277 25.6131H44.2999L45.3308 20.2633C45.3587 20.1797 45.3308 20.124 45.303 20.0961C45.2751 20.0682 45.2472 20.0682 45.1637 20.0682H44.7178C44.6621 20.0682 44.6064 20.0682 44.5785 20.0961C44.5506 20.124 44.5228 20.1797 44.4949 20.2633L43.1853 26.9784C43.1575 27.0899 43.2132 27.1456 43.3246 27.1456H43.7426C43.8262 27.1456 43.8819 27.1178 43.9098 27.0899C43.9376 27.062 43.9934 27.0063 44.0491 26.9506L47.755 22.5481L48.5909 21.545H48.6188L47.5599 26.9506C47.5321 27.062 47.5878 27.1456 47.6993 27.1456H48.1451C48.2565 27.1456 48.3401 27.0899 48.368 26.9506L49.6776 20.2075C49.6776 20.124 49.6219 20.0961 49.5104 20.0961ZM54.8045 21.963H54.498C54.4144 21.963 54.3587 21.9908 54.303 22.0187C54.2472 22.0466 54.2194 22.1023 54.1915 22.1859L53.8293 24.0528H51.1544L51.5166 22.1859C51.5445 22.1023 51.5166 22.0466 51.4887 22.0187C51.4609 21.9908 51.4051 21.963 51.3215 21.963H50.9872C50.9036 21.963 50.8479 21.9908 50.7921 22.0187C50.7364 22.0466 50.7085 22.1023 50.7085 22.1859L49.789 26.9506C49.7612 27.0899 49.8169 27.1735 49.9841 27.1735H50.3185C50.4578 27.1735 50.5692 27.0899 50.5971 26.9506L51.015 24.7493H53.69L53.272 26.9506C53.2441 27.0899 53.3277 27.1735 53.4949 27.1735H53.8014C53.9407 27.1735 54.0522 27.0899 54.0801 26.9506L54.9996 22.1859C55.0274 22.1023 54.9996 22.0466 54.9717 22.0187C54.9438 21.9908 54.8881 21.963 54.8045 21.963ZM62.9965 21.9908C62.8014 21.9072 62.5506 21.8515 62.2163 21.8515C61.8541 21.8515 61.4918 21.9351 61.1296 22.1023C60.7674 22.2695 60.433 22.4366 60.1265 22.6317C60.0708 22.3809 59.9593 22.1859 59.7643 22.0466C59.5692 21.9072 59.2906 21.8515 58.9005 21.8515C58.7333 21.8515 58.5661 21.8794 58.3711 21.9072C58.2039 21.963 58.0367 21.9908 57.8695 22.0744C57.7023 22.1301 57.563 22.2137 57.3958 22.2973C57.2565 22.3809 57.1172 22.4645 57.0058 22.5202H56.9779L57.0615 22.158C57.0893 22.0466 57.0336 21.963 56.9222 21.963H56.4763C56.3649 21.963 56.2813 22.0187 56.2534 22.158L55.3061 27.0063C55.2782 27.1178 55.3339 27.2014 55.4454 27.2014H55.8912C56.0027 27.2014 56.0863 27.1456 56.1141 27.0063L56.8386 23.2168C56.9779 23.1611 57.1172 23.0775 57.2844 23.0218C57.4516 22.9382 57.6188 22.8825 57.7859 22.8267C57.9531 22.771 58.0924 22.7153 58.2596 22.6874C58.3989 22.6596 58.5383 22.6317 58.6776 22.6317C59.0119 22.6317 59.207 22.7153 59.2627 22.9103C59.3184 23.1054 59.3184 23.384 59.2627 23.7184L58.6219 27.0063C58.594 27.1178 58.6219 27.2014 58.7333 27.2014H59.207C59.3185 27.2014 59.402 27.1456 59.4299 27.0063L60.0429 23.802C60.0429 23.7741 60.0708 23.7184 60.0708 23.6627C60.0708 23.6069 60.0986 23.5512 60.0986 23.4955C60.0986 23.4397 60.1265 23.384 60.1265 23.3283C60.1265 23.2726 60.1265 23.2447 60.1265 23.2168C60.238 23.1611 60.3494 23.1054 60.5166 23.0218C60.6838 22.9382 60.8231 22.8825 60.9903 22.8267C61.1575 22.771 61.3246 22.7153 61.4918 22.6596C61.659 22.6038 61.7983 22.6038 61.9376 22.6038C62.2441 22.6038 62.4671 22.6874 62.5506 22.8546C62.6342 23.0218 62.6342 23.3283 62.5506 23.7741L61.9098 26.9784C61.8819 27.0899 61.9376 27.1735 62.0491 27.1735H62.4949C62.6064 27.1735 62.69 27.1178 62.7178 26.9784L63.3308 23.7741C63.3866 23.4955 63.4144 23.2168 63.4423 22.9939C63.4423 22.771 63.4144 22.5481 63.3308 22.3809C63.303 22.2137 63.1915 22.0744 62.9965 21.9908ZM68.3463 22.1859C68.207 22.0744 68.0119 21.9908 67.8169 21.9351C67.6219 21.8794 67.3989 21.8515 67.176 21.8515C66.6745 21.8515 66.2287 21.9351 65.9222 22.1023C65.5878 22.2695 65.3092 22.4645 65.1141 22.7153C64.8912 22.9661 64.7519 23.2447 64.6404 23.5233C64.529 23.802 64.4454 24.0806 64.4175 24.3035C64.3618 24.5264 64.3061 24.7772 64.2503 25.0001C64.1946 25.2509 64.1667 25.4738 64.1667 25.7246C64.1667 26.0032 64.1946 26.254 64.2782 26.449C64.3618 26.6441 64.4732 26.7834 64.6404 26.8949C64.8076 27.0063 64.9748 27.0899 65.1977 27.1456C65.4206 27.2014 65.6714 27.2014 65.95 27.2014C66.0893 27.2014 66.2287 27.2014 66.3958 27.2014C66.563 27.2014 66.7024 27.1735 66.8695 27.1735C67.0367 27.1456 67.176 27.1178 67.3432 27.0899C67.4825 27.062 67.6219 27.0063 67.7612 26.9784C67.8726 26.9227 67.9284 26.8391 67.9284 26.7555V26.5326C67.9284 26.449 67.9005 26.4212 67.8726 26.3933C67.8448 26.3654 67.789 26.3654 67.7054 26.3933C67.594 26.4212 67.4825 26.4212 67.3432 26.4212C67.2039 26.4212 67.0646 26.449 66.9253 26.449C66.7859 26.449 66.6745 26.4769 66.5352 26.4769C66.4237 26.4769 66.3123 26.4769 66.2287 26.4769C66.0893 26.4769 65.95 26.4769 65.8107 26.4769C65.6714 26.4769 65.5321 26.449 65.4206 26.3933C65.3092 26.3376 65.1977 26.2818 65.142 26.1704C65.0584 26.0589 65.0305 25.9196 65.0305 25.7246C65.0305 25.5574 65.0584 25.3902 65.0862 25.1952C65.2813 25.1952 65.5321 25.1952 65.8107 25.1673C66.0893 25.1394 66.368 25.1116 66.6188 25.0558C66.8974 25.0001 67.176 24.9165 67.4268 24.8329C67.7054 24.7215 67.9284 24.61 68.1234 24.4428C68.3185 24.2757 68.4856 24.1085 68.6249 23.8856C68.7643 23.6627 68.82 23.4119 68.82 23.1054C68.82 22.9103 68.7643 22.7153 68.6807 22.5481C68.625 22.4366 68.4856 22.2973 68.3463 22.1859ZM67.8448 23.7462C67.7333 23.8856 67.6218 23.997 67.4547 24.1085C67.2875 24.2199 67.1203 24.2757 66.8974 24.3592C66.7023 24.415 66.4794 24.4707 66.2844 24.4986C66.0893 24.5264 65.8664 24.5543 65.6714 24.5822C65.4763 24.61 65.3092 24.61 65.1698 24.61L65.2813 24.1921C65.337 24.0528 65.3649 23.9134 65.4485 23.7184C65.5042 23.5512 65.6157 23.3562 65.755 23.189C65.8943 23.0218 66.0615 22.8825 66.2844 22.771C66.5073 22.6596 66.7859 22.6038 67.1203 22.6038C67.3711 22.6038 67.5661 22.6596 67.7333 22.7431C67.9005 22.8546 67.9841 23.0218 67.9841 23.2447C68.0119 23.4397 67.9562 23.6069 67.8448 23.7462ZM72.8881 21.8794C72.7209 21.8794 72.5259 21.9072 72.3308 21.963C72.1358 22.0187 71.9407 22.0744 71.7736 22.158C71.6064 22.2416 71.4392 22.2973 71.272 22.3809C71.1327 22.4645 70.9934 22.5202 70.9098 22.576H70.8819L70.9655 22.158C70.9934 22.0466 70.9376 21.963 70.8262 21.963H70.3804C70.2689 21.963 70.1853 22.0187 70.1575 22.158L68.8757 28.8453C68.8479 28.9289 68.8479 28.9846 68.8757 29.0125C68.9036 29.0404 68.9314 29.0682 69.015 29.0682H69.4609C69.5445 29.0682 69.6002 29.0404 69.628 29.0125C69.6559 28.9846 69.6838 28.9289 69.6838 28.8453L70.046 26.9784C70.3246 27.0899 70.5754 27.1735 70.8541 27.2014C71.1048 27.2571 71.3556 27.2571 71.5506 27.2571C71.9407 27.2571 72.2751 27.2014 72.5537 27.1178C72.8324 27.0342 73.0553 26.867 73.2503 26.6719C73.4454 26.4769 73.5847 26.254 73.6962 25.9475C73.8076 25.6688 73.9191 25.3345 74.0027 24.9723C74.0305 24.8608 74.0584 24.7215 74.0863 24.5822C74.1141 24.4428 74.142 24.2757 74.1698 24.1363C74.1977 23.997 74.1977 23.8298 74.2256 23.6905C74.2256 23.5512 74.2534 23.4397 74.2534 23.3283C74.2534 22.8267 74.142 22.4645 73.9469 22.2137C73.724 21.9908 73.3897 21.8794 72.8881 21.8794ZM73.3618 23.802C73.3339 23.9413 73.3339 24.0806 73.3061 24.2199C73.2782 24.3592 73.2503 24.4986 73.2503 24.6379C73.2225 24.7772 73.1946 24.9165 73.1667 25.028C73.0831 25.3066 73.0274 25.5574 72.9438 25.7524C72.8602 25.9475 72.7488 26.1147 72.6373 26.2261C72.5259 26.3376 72.3866 26.4212 72.2194 26.4769C72.0522 26.5326 71.885 26.5605 71.69 26.5605C71.4671 26.5605 71.2163 26.5326 70.9655 26.5048C70.7147 26.4769 70.464 26.4212 70.1853 26.3097L70.7705 23.2447C70.8819 23.189 71.0212 23.1332 71.1606 23.0497C71.3277 22.9661 71.4949 22.9103 71.6621 22.8546C71.8293 22.7989 72.0243 22.7432 72.1915 22.6874C72.3587 22.6317 72.5259 22.6317 72.6373 22.6317C72.8881 22.6317 73.0832 22.6874 73.1946 22.7989C73.3061 22.9103 73.3618 23.1332 73.3618 23.4676C73.3897 23.5512 73.3897 23.6627 73.3618 23.802ZM79.659 21.963H79.3525C79.2689 21.963 79.2132 21.9908 79.1575 22.0187C79.1017 22.0466 79.0739 22.1023 79.046 22.1859L78.6838 24.0528H76.0089L76.3711 22.1859C76.3989 22.1023 76.3711 22.0466 76.3432 22.0187C76.3154 21.9908 76.2596 21.963 76.176 21.963H75.8417C75.7581 21.963 75.7024 21.9908 75.6466 22.0187C75.5909 22.0466 75.563 22.1023 75.563 22.1859L74.6435 26.9506C74.6157 27.0899 74.6714 27.1735 74.8386 27.1735H75.1729C75.3123 27.1735 75.4237 27.0899 75.4516 26.9506L75.8695 24.7493H78.5445L78.1265 26.9506C78.0986 27.0899 78.1822 27.1735 78.3494 27.1735H78.6559C78.7952 27.1735 78.9067 27.0899 78.9345 26.9506L79.854 22.1859C79.8819 22.1023 79.8541 22.0466 79.8262 22.0187C79.7705 21.9908 79.7147 21.963 79.659 21.963ZM84.5352 22.1859C84.3958 22.0744 84.2008 21.9908 84.0058 21.9351C83.8107 21.8794 83.5878 21.8515 83.3649 21.8515C82.8633 21.8515 82.4175 21.9351 82.111 22.1023C81.7766 22.2695 81.498 22.4645 81.303 22.7153C81.0801 22.9661 80.9407 23.2447 80.8293 23.5233C80.7178 23.802 80.6342 24.0806 80.6064 24.3035C80.5506 24.5264 80.4949 24.7772 80.4392 25.0001C80.3835 25.2509 80.3556 25.4738 80.3556 25.7246C80.3556 26.0032 80.3835 26.254 80.4671 26.449C80.5506 26.6441 80.6621 26.7834 80.8293 26.8949C80.9965 27.0063 81.1636 27.0899 81.3866 27.1456C81.6095 27.2014 81.8602 27.2014 82.1389 27.2014C82.2782 27.2014 82.4175 27.2014 82.5847 27.2014C82.7519 27.2014 82.8912 27.1735 83.0584 27.1735C83.2256 27.1456 83.3649 27.1178 83.5321 27.0899C83.6714 27.062 83.8107 27.0063 83.95 26.9784C84.0615 26.9227 84.1172 26.8391 84.1172 26.7555V26.5326C84.1172 26.449 84.0893 26.4212 84.0615 26.3933C84.0336 26.3654 83.9779 26.3654 83.8943 26.3933C83.7828 26.4212 83.6714 26.4212 83.5321 26.4212C83.3927 26.4212 83.2534 26.449 83.1141 26.449C82.9748 26.449 82.8633 26.4769 82.724 26.4769C82.6126 26.4769 82.5011 26.4769 82.4175 26.4769C82.2782 26.4769 82.1389 26.4769 81.9996 26.4769C81.8602 26.4769 81.7209 26.449 81.6095 26.3933C81.498 26.3376 81.3866 26.2818 81.3308 26.1704C81.2472 26.0589 81.2194 25.9196 81.2194 25.7246C81.2194 25.5574 81.2472 25.3902 81.2751 25.1952C81.4701 25.1952 81.7209 25.1952 81.9996 25.1673C82.2782 25.1394 82.5568 25.1116 82.8076 25.0558C83.0862 25.0001 83.3649 24.9165 83.6157 24.8329C83.8943 24.7215 84.1172 24.61 84.3123 24.4428C84.5073 24.2757 84.6745 24.1085 84.8138 23.8856C84.9531 23.6627 85.0088 23.4119 85.0088 23.1054C85.0088 22.9103 84.9531 22.7153 84.8695 22.5481C84.8138 22.4366 84.6745 22.2973 84.5352 22.1859ZM84.0336 23.7462C83.9222 23.8856 83.8107 23.997 83.6435 24.1085C83.4763 24.2199 83.3092 24.2757 83.0862 24.3592C82.8912 24.415 82.6683 24.4707 82.4732 24.4986C82.2782 24.5264 82.0553 24.5543 81.8602 24.5822C81.6652 24.61 81.498 24.61 81.3587 24.61L81.4701 24.1921C81.5259 24.0528 81.5537 23.9134 81.6373 23.7184C81.6931 23.5512 81.8045 23.3562 81.9438 23.189C82.0831 23.0218 82.2503 22.8825 82.4732 22.771C82.6962 22.6596 82.9748 22.6038 83.3092 22.6038C83.5599 22.6038 83.755 22.6596 83.9222 22.7431C84.0893 22.8546 84.1729 23.0218 84.1729 23.2447C84.2008 23.4397 84.1451 23.6069 84.0336 23.7462ZM93.0336 21.9908C92.8386 21.9072 92.5878 21.8515 92.2534 21.8515C91.8912 21.8515 91.529 21.9351 91.1667 22.1023C90.8045 22.2695 90.4701 22.4366 90.1636 22.6317C90.1079 22.3809 89.9965 22.1859 89.8014 22.0466C89.6064 21.9072 89.3277 21.8515 88.9376 21.8515C88.7705 21.8515 88.6033 21.8794 88.4082 21.9072C88.241 21.963 88.0739 21.9908 87.9067 22.0744C87.7395 22.1301 87.6002 22.2137 87.433 22.2973C87.2937 22.3809 87.1544 22.4645 87.0429 22.5202H87.015L87.0986 22.158C87.1265 22.0466 87.0708 21.963 86.9593 21.963H86.5135C86.402 21.963 86.3184 22.0187 86.2906 22.158L85.3432 27.0063C85.3153 27.1178 85.3711 27.2014 85.4825 27.2014H85.9284C86.0398 27.2014 86.1234 27.1456 86.1513 27.0063L86.8757 23.2168C87.015 23.1611 87.1544 23.0775 87.3215 23.0218C87.4887 22.9382 87.6559 22.8825 87.8231 22.8267C87.9903 22.771 88.1575 22.7153 88.2968 22.6874C88.4361 22.6596 88.5754 22.6317 88.7147 22.6317C89.0491 22.6317 89.2441 22.7153 89.2999 22.9103C89.3556 23.1054 89.3835 23.384 89.2999 23.7184L88.659 27.0063C88.6311 27.1178 88.659 27.2014 88.7705 27.2014H89.2441C89.3556 27.2014 89.4392 27.1456 89.467 27.0063L90.0801 23.802C90.0801 23.7741 90.1079 23.7184 90.1079 23.6627C90.1079 23.6069 90.1358 23.5512 90.1358 23.4955C90.1358 23.4397 90.1636 23.384 90.1636 23.3283C90.1636 23.2726 90.1636 23.2447 90.1636 23.2168C90.2751 23.1611 90.4144 23.1054 90.5537 23.0218C90.6931 22.9382 90.8602 22.8825 91.0274 22.8267C91.1946 22.771 91.3618 22.7153 91.529 22.6596C91.6962 22.6038 91.8355 22.6038 91.9748 22.6038C92.3092 22.6038 92.5042 22.6874 92.5878 22.8546C92.6714 23.0218 92.6714 23.3283 92.5878 23.7741L91.9469 26.9784C91.9191 27.0899 91.9748 27.1735 92.0863 27.1735H92.5321C92.6435 27.1735 92.7271 27.1178 92.755 26.9784L93.368 23.7741C93.4237 23.4955 93.4516 23.2168 93.4794 22.9939C93.4794 22.771 93.4516 22.5481 93.368 22.3809C93.3401 22.2137 93.2287 22.0744 93.0336 21.9908ZM97.5754 23.3004H94.6776C94.6218 23.3004 94.5661 23.3004 94.5661 23.3283C94.5383 23.3562 94.5104 23.384 94.5104 23.4397L94.4268 23.8856C94.3989 23.9692 94.4547 24.0249 94.5661 24.0249H97.464C97.5754 24.0249 97.6311 23.9692 97.659 23.8856L97.7426 23.4397C97.7705 23.384 97.7426 23.3562 97.7147 23.3283C97.659 23.3283 97.6311 23.3004 97.5754 23.3004ZM102.953 21.963H102.563C102.479 21.963 102.424 21.963 102.396 21.9908C102.368 22.0187 102.34 22.0466 102.34 22.1023L102.312 22.2416C102.061 22.1023 101.811 22.0187 101.56 21.9351C101.309 21.8794 101.058 21.8236 100.863 21.8236C100.445 21.8236 100.083 21.8794 99.8045 22.0187C99.5259 22.1301 99.2751 22.3252 99.0801 22.5481C98.885 22.771 98.7178 23.0775 98.6064 23.4119C98.4949 23.7462 98.3835 24.1363 98.2999 24.5822C98.2441 24.7772 98.2163 25.0001 98.1884 25.1952C98.1605 25.3902 98.1605 25.5853 98.1605 25.7524C98.1605 26.2261 98.272 26.5884 98.4671 26.8391C98.69 27.0899 99.0243 27.2014 99.5259 27.2014C99.9438 27.2014 100.306 27.1178 100.613 26.9784C100.919 26.8391 101.226 26.6719 101.504 26.5048L101.421 26.9227C101.393 27.0342 101.448 27.1178 101.56 27.1178H102.006C102.117 27.1178 102.201 27.062 102.201 26.9227L103.148 22.1023C103.176 22.0187 103.148 21.963 103.148 21.9351C103.092 21.963 103.037 21.963 102.953 21.963ZM101.588 25.9196C101.476 25.9753 101.365 26.0311 101.198 26.0868C101.031 26.1425 100.863 26.2261 100.696 26.2819C100.529 26.3376 100.334 26.3933 100.167 26.449C99.9996 26.5048 99.8324 26.5048 99.7209 26.5048C99.4701 26.5048 99.2751 26.449 99.1636 26.3654C99.0522 26.254 98.9686 26.0589 98.9686 25.7246C98.9686 25.6131 98.9686 25.4459 98.9965 25.2788C99.0243 25.0837 99.0522 24.8887 99.1079 24.6658C99.1915 24.2757 99.2472 23.9692 99.3587 23.6905C99.4423 23.4397 99.5537 23.2168 99.6652 23.0497C99.7766 22.8825 99.9438 22.771 100.111 22.7153C100.278 22.6596 100.473 22.6038 100.724 22.6038C101.198 22.6038 101.699 22.7153 102.201 22.9382L101.588 25.9196ZM107.383 22.1023C107.077 21.9072 106.659 21.8236 106.13 21.8236C105.851 21.8236 105.572 21.8515 105.294 21.8794C105.015 21.9072 104.736 21.9908 104.541 22.0744C104.43 22.1301 104.374 22.1859 104.374 22.2973V22.5202C104.374 22.6038 104.374 22.6317 104.43 22.6596C104.486 22.6874 104.541 22.6874 104.597 22.6596C104.82 22.6317 105.071 22.6038 105.349 22.576C105.628 22.5481 105.851 22.5481 106.046 22.5481C106.687 22.5481 107.021 22.7153 107.021 23.0775C107.021 23.3283 106.938 23.5233 106.743 23.6627C106.548 23.802 106.213 23.9413 105.739 24.0528C105.461 24.1085 105.21 24.1921 104.959 24.2757C104.709 24.3592 104.486 24.4707 104.291 24.6379C104.096 24.7772 103.928 24.9723 103.817 25.223C103.705 25.4738 103.65 25.7803 103.65 26.1704C103.65 26.5605 103.817 26.8391 104.123 27.0063C104.458 27.1735 104.876 27.2849 105.433 27.2849C105.712 27.2849 105.99 27.2571 106.297 27.2292C106.603 27.2014 106.882 27.1178 107.105 27.0342C107.216 26.9784 107.272 26.8949 107.272 26.8113V26.5326C107.272 26.449 107.244 26.4212 107.216 26.3933C107.188 26.3654 107.105 26.3654 107.049 26.3933C106.938 26.4212 106.826 26.4212 106.687 26.449C106.548 26.4769 106.408 26.4769 106.297 26.4769C106.157 26.4769 106.046 26.5048 105.907 26.5048C105.795 26.5048 105.684 26.5048 105.6 26.5048C105.377 26.5048 105.21 26.5048 105.071 26.4769C104.931 26.449 104.82 26.4212 104.736 26.3654C104.653 26.3097 104.597 26.254 104.569 26.1983C104.541 26.1425 104.513 26.0589 104.513 25.9753C104.513 25.7803 104.541 25.6131 104.625 25.4738C104.681 25.3345 104.792 25.223 104.904 25.1394C105.015 25.0558 105.154 24.9723 105.294 24.9165C105.433 24.8608 105.6 24.8329 105.739 24.7772C106.074 24.6936 106.38 24.6379 106.631 24.5543C106.91 24.4707 107.133 24.3592 107.328 24.2199C107.523 24.0806 107.662 23.9134 107.774 23.7184C107.885 23.5233 107.941 23.2726 107.941 22.9661C107.829 22.576 107.69 22.2973 107.383 22.1023ZM112.538 22.1859C112.399 22.0744 112.204 21.9908 112.009 21.9351C111.814 21.8794 111.591 21.8515 111.368 21.8515C110.866 21.8515 110.421 21.9351 110.114 22.1023C109.78 22.2695 109.501 22.4645 109.306 22.7153C109.083 22.9661 108.944 23.2447 108.832 23.5233C108.721 23.802 108.637 24.0806 108.609 24.3035C108.554 24.5264 108.498 24.7772 108.442 25.0001C108.387 25.2509 108.359 25.4738 108.359 25.7246C108.359 26.0032 108.387 26.254 108.47 26.449C108.554 26.6441 108.665 26.7834 108.832 26.8949C109 27.0063 109.167 27.0899 109.39 27.1456C109.613 27.2014 109.863 27.2014 110.142 27.2014C110.281 27.2014 110.421 27.2014 110.588 27.2014C110.755 27.2014 110.894 27.1735 111.061 27.1735C111.229 27.1456 111.368 27.1178 111.535 27.0899C111.674 27.062 111.814 27.0063 111.953 26.9784C112.065 26.9227 112.12 26.8391 112.12 26.7555V26.5326C112.12 26.449 112.092 26.4212 112.065 26.3933C112.037 26.3654 111.981 26.3654 111.897 26.3933C111.786 26.4212 111.674 26.4212 111.535 26.4212C111.396 26.4212 111.257 26.449 111.117 26.449C110.978 26.449 110.866 26.4769 110.727 26.4769C110.616 26.4769 110.504 26.4769 110.421 26.4769C110.281 26.4769 110.142 26.4769 110.003 26.4769C109.863 26.4769 109.724 26.449 109.613 26.3933C109.501 26.3376 109.39 26.2818 109.334 26.1704C109.25 26.0589 109.222 25.9196 109.222 25.7246C109.222 25.5574 109.25 25.3902 109.278 25.1952C109.473 25.1952 109.724 25.1952 110.003 25.1673C110.281 25.1394 110.56 25.1116 110.811 25.0558C111.089 25.0001 111.368 24.9165 111.619 24.8329C111.897 24.7215 112.12 24.61 112.315 24.4428C112.51 24.2757 112.678 24.1085 112.817 23.8856C112.956 23.6627 113.012 23.4119 113.012 23.1054C113.012 22.9103 112.956 22.7153 112.873 22.5481C112.789 22.4366 112.678 22.2973 112.538 22.1859ZM112.037 23.7462C111.925 23.8856 111.814 23.997 111.647 24.1085C111.479 24.2199 111.312 24.2757 111.089 24.3592C110.894 24.415 110.671 24.4707 110.476 24.4986C110.281 24.5264 110.058 24.5543 109.863 24.5822C109.668 24.61 109.501 24.61 109.362 24.61L109.473 24.1921C109.529 24.0528 109.557 23.9134 109.64 23.7184C109.696 23.5512 109.808 23.3562 109.947 23.189C110.086 23.0218 110.253 22.8825 110.476 22.771C110.699 22.6596 110.978 22.6038 111.312 22.6038C111.563 22.6038 111.758 22.6596 111.925 22.7431C112.092 22.8546 112.176 23.0218 112.176 23.2447C112.204 23.4397 112.148 23.6069 112.037 23.7462ZM118.445 21.963H118.139C118.055 21.963 118 21.9908 117.944 22.0187C117.888 22.0466 117.86 22.1023 117.832 22.1859L117.47 24.0528H114.795L115.157 22.1859C115.185 22.1023 115.157 22.0466 115.13 22.0187C115.102 21.9908 115.046 21.963 114.962 21.963H114.628C114.544 21.963 114.489 21.9908 114.433 22.0187C114.377 22.0466 114.349 22.1023 114.349 22.1859L113.43 26.9506C113.402 27.0899 113.458 27.1735 113.625 27.1735H113.959C114.099 27.1735 114.21 27.0899 114.238 26.9506L114.656 24.7493H117.331L116.913 26.9506C116.885 27.0899 116.969 27.1735 117.136 27.1735H117.442C117.582 27.1735 117.693 27.0899 117.721 26.9506L118.64 22.1859C118.668 22.1023 118.64 22.0466 118.613 22.0187C118.557 21.9908 118.501 21.963 118.445 21.963ZM126.637 21.9908C126.442 21.9072 126.192 21.8515 125.857 21.8515C125.495 21.8515 125.133 21.9351 124.77 22.1023C124.408 22.2695 124.074 22.4366 123.767 22.6317C123.712 22.3809 123.6 22.1859 123.405 22.0466C123.21 21.9072 122.931 21.8515 122.541 21.8515C122.374 21.8515 122.207 21.8794 122.012 21.9072C121.845 21.963 121.678 21.9908 121.51 22.0744C121.343 22.1301 121.204 22.2137 121.037 22.2973C120.897 22.3809 120.758 22.4645 120.647 22.5202H120.619L120.702 22.158C120.73 22.0466 120.674 21.963 120.563 21.963H120.117C120.006 21.963 119.922 22.0187 119.894 22.158L118.947 27.0063C118.919 27.1178 118.975 27.2014 119.086 27.2014H119.532C119.644 27.2014 119.727 27.1456 119.755 27.0063L120.479 23.2168C120.619 23.1611 120.758 23.0775 120.925 23.0218C121.092 22.9382 121.26 22.8825 121.427 22.8267C121.594 22.771 121.761 22.7153 121.9 22.6874C122.04 22.6596 122.179 22.6317 122.318 22.6317C122.653 22.6317 122.848 22.7153 122.904 22.9103C122.959 23.1054 122.959 23.384 122.904 23.7184L122.263 27.0063C122.235 27.1178 122.263 27.2014 122.374 27.2014H122.848C122.959 27.2014 123.043 27.1456 123.071 27.0063L123.684 23.802C123.684 23.7741 123.712 23.7184 123.712 23.6627C123.712 23.6069 123.739 23.5512 123.739 23.4955C123.739 23.4397 123.767 23.384 123.767 23.3283C123.767 23.2726 123.767 23.2447 123.767 23.2168C123.879 23.1611 124.018 23.1054 124.157 23.0218C124.325 22.9382 124.464 22.8825 124.631 22.8267C124.798 22.771 124.965 22.7153 125.133 22.6596C125.3 22.6038 125.439 22.6038 125.579 22.6038C125.913 22.6038 126.108 22.6874 126.192 22.8546C126.275 23.0218 126.275 23.3283 126.192 23.7741L125.551 26.9784C125.523 27.0899 125.579 27.1735 125.69 27.1735H126.136C126.247 27.1735 126.331 27.1178 126.359 26.9784L126.972 23.7741C127.027 23.4955 127.055 23.2168 127.083 22.9939C127.083 22.771 127.055 22.5481 126.972 22.3809C126.944 22.2137 126.805 22.0744 126.637 21.9908ZM132.294 22.3252C132.322 22.2695 132.322 22.2416 132.322 22.1859C132.322 22.1301 132.294 22.1023 132.238 22.1023C132.126 22.0466 132.015 22.0187 131.848 21.9908C131.709 21.963 131.541 21.9351 131.402 21.9072C131.235 21.8794 131.096 21.8794 130.956 21.8794C130.817 21.8794 130.678 21.8794 130.566 21.8794C130.092 21.8794 129.702 21.963 129.396 22.1023C129.089 22.2416 128.866 22.4366 128.671 22.6874C128.476 22.9382 128.337 23.189 128.253 23.5233C128.17 23.8298 128.086 24.1642 128.003 24.4986C127.947 24.7215 127.919 24.9444 127.891 25.1673C127.863 25.3902 127.835 25.5853 127.835 25.7803C127.835 25.9753 127.863 26.1704 127.919 26.3376C127.975 26.5326 128.058 26.6998 128.198 26.8391C128.337 26.9784 128.504 27.0899 128.727 27.1735C128.95 27.2571 129.229 27.3128 129.591 27.3128C129.87 27.3128 130.148 27.2849 130.455 27.2571C130.761 27.2292 131.04 27.1456 131.263 27.062C131.374 27.0063 131.43 26.9227 131.43 26.8391V26.6162C131.43 26.5326 131.402 26.5048 131.374 26.4769C131.346 26.449 131.291 26.449 131.207 26.4769C131.096 26.5048 130.984 26.5048 130.845 26.5048C130.705 26.5048 130.566 26.5326 130.427 26.5326C130.287 26.5326 130.148 26.5605 130.037 26.5605C129.925 26.5605 129.814 26.5605 129.73 26.5605C129.368 26.5605 129.117 26.4769 128.978 26.3376C128.811 26.1983 128.727 25.9475 128.755 25.5574C128.755 25.4181 128.755 25.2509 128.783 25.0837C128.811 24.9165 128.839 24.7215 128.866 24.5264C128.95 24.1642 129.006 23.8577 129.117 23.6069C129.201 23.3562 129.312 23.1611 129.452 23.0218C129.591 22.8825 129.73 22.771 129.897 22.7153C130.065 22.6596 130.287 22.6317 130.51 22.6317C130.705 22.6317 130.928 22.6317 131.207 22.6596C131.458 22.6874 131.709 22.7153 131.931 22.7153C132.015 22.7153 132.071 22.7153 132.127 22.7153C132.182 22.7153 132.21 22.6596 132.238 22.6038L132.294 22.3252ZM139.817 21.9908C139.622 21.9072 139.371 21.8515 139.037 21.8515C138.674 21.8515 138.312 21.9351 137.95 22.1023C137.588 22.2695 137.253 22.4366 136.947 22.6317C136.891 22.3809 136.78 22.1859 136.585 22.0466C136.39 21.9072 136.111 21.8515 135.721 21.8515C135.554 21.8515 135.387 21.8794 135.192 21.9072C135.024 21.963 134.857 21.9908 134.69 22.0744C134.523 22.1301 134.383 22.2137 134.216 22.2973C134.077 22.3809 133.938 22.4645 133.826 22.5202L133.91 22.158C133.938 22.0466 133.882 21.963 133.77 21.963H133.325C133.213 21.963 133.13 22.0187 133.102 22.158L132.154 27.0063C132.126 27.1178 132.182 27.2014 132.294 27.2014H132.739C132.851 27.2014 132.935 27.1456 132.962 27.0063L133.687 23.2168C133.826 23.1611 133.965 23.0775 134.133 23.0218C134.3 22.9382 134.467 22.8825 134.634 22.8267C134.801 22.771 134.969 22.7153 135.108 22.6874C135.247 22.6596 135.387 22.6317 135.526 22.6317C135.86 22.6317 136.055 22.7153 136.111 22.9103C136.167 23.1054 136.167 23.384 136.111 23.7184L135.47 27.0063C135.442 27.1178 135.47 27.2014 135.582 27.2014H136.055C136.167 27.2014 136.25 27.1456 136.278 27.0063L136.891 23.802C136.891 23.7741 136.919 23.7184 136.919 23.6627C136.919 23.6069 136.947 23.5512 136.947 23.4955C136.947 23.4397 136.975 23.384 136.975 23.3283C136.975 23.2726 136.975 23.2447 136.975 23.2168C137.086 23.1611 137.198 23.1054 137.365 23.0218C137.532 22.9382 137.671 22.8825 137.839 22.8267C138.006 22.771 138.173 22.7153 138.34 22.6596C138.507 22.6038 138.647 22.6038 138.786 22.6038C139.12 22.6038 139.315 22.6874 139.399 22.8546C139.483 23.0218 139.483 23.3283 139.399 23.7741L138.758 26.9784C138.73 27.0899 138.786 27.1735 138.897 27.1735H139.343C139.455 27.1735 139.538 27.1178 139.566 26.9784L140.179 23.7741C140.235 23.4955 140.263 23.2168 140.291 22.9939C140.291 22.771 140.263 22.5481 140.179 22.3809C140.151 22.2137 140.012 22.0744 139.817 21.9908ZM145.39 23.7741C145.501 23.5791 145.557 23.3562 145.557 23.1054C145.557 22.8825 145.501 22.6874 145.418 22.5202C145.334 22.3531 145.195 22.2416 145.055 22.1301C144.888 22.0187 144.721 21.963 144.526 21.9072C144.331 21.8515 144.108 21.8515 143.857 21.8515C143.272 21.8515 142.743 22.0187 142.297 22.3252C141.851 22.6317 141.572 23.1332 141.433 23.7741L140.876 26.5605C140.848 26.6441 140.848 26.7277 140.876 26.8113C140.876 26.8949 140.931 26.9506 141.043 27.0063C141.154 27.062 141.294 27.0899 141.461 27.1178C141.628 27.1456 141.795 27.1735 141.99 27.2014C142.185 27.2292 142.352 27.2292 142.548 27.2571C142.743 27.2571 142.91 27.2849 143.077 27.2849C143.579 27.2849 143.996 27.2014 144.331 27.0342C144.637 26.867 144.888 26.6998 145.055 26.4769C145.222 26.254 145.334 26.0589 145.39 25.836C145.445 25.6131 145.473 25.4459 145.473 25.3345C145.473 25.2509 145.473 25.1673 145.445 25.0837C145.445 25.0001 145.418 24.8887 145.362 24.7772C145.306 24.6658 145.25 24.5822 145.167 24.4707C145.083 24.3871 144.944 24.3035 144.777 24.2199C145.083 24.1363 145.278 23.9692 145.39 23.7741ZM143.216 24.5543H143.746C143.941 24.5543 144.108 24.5822 144.219 24.6379C144.331 24.6936 144.442 24.7493 144.526 24.8329C144.609 24.9165 144.665 25.0001 144.693 25.0837C144.721 25.1673 144.749 25.2509 144.749 25.3345C144.749 25.5017 144.721 25.641 144.665 25.8082C144.609 25.9475 144.526 26.0868 144.387 26.1983C144.275 26.3097 144.108 26.3933 143.913 26.449C143.718 26.5048 143.495 26.5326 143.216 26.5326C142.882 26.5048 142.631 26.5048 142.408 26.4769C142.185 26.449 141.99 26.449 141.823 26.3933L142.297 23.9692C142.325 23.802 142.38 23.6348 142.436 23.4676C142.492 23.3004 142.603 23.1611 142.715 23.0218C142.826 22.8825 142.993 22.771 143.188 22.6874C143.383 22.6038 143.606 22.576 143.885 22.576C144.136 22.576 144.359 22.6317 144.526 22.7153C144.721 22.7989 144.805 22.9382 144.805 23.1332C144.805 23.2726 144.777 23.384 144.693 23.4955C144.609 23.5791 144.498 23.6627 144.359 23.7184C144.219 23.7741 144.08 23.8298 143.885 23.8577C143.718 23.8856 143.523 23.9134 143.328 23.9134C143.244 23.9134 143.188 23.9134 143.188 23.9413C143.161 23.9692 143.161 23.997 143.161 24.0249L143.105 24.415C143.021 24.5264 143.077 24.5543 143.216 24.5543ZM150.99 22.771C150.907 22.5481 150.767 22.3809 150.6 22.2416C150.433 22.1023 150.238 22.0187 149.987 21.9351C149.736 21.8794 149.486 21.8515 149.179 21.8515C148.761 21.8515 148.399 21.9072 148.092 22.0466C147.786 22.1859 147.563 22.3809 147.34 22.6038C147.145 22.8546 146.978 23.1332 146.866 23.4397C146.755 23.7462 146.644 24.1085 146.588 24.4707C146.56 24.6379 146.532 24.8329 146.504 25.0001C146.476 25.1673 146.476 25.3623 146.476 25.5295C146.476 26.1425 146.644 26.5884 146.95 26.8391C147.284 27.1178 147.73 27.2292 148.343 27.2292C148.817 27.2292 149.207 27.1735 149.513 27.0342C149.82 26.8949 150.071 26.6998 150.266 26.449C150.461 26.1983 150.628 25.9196 150.739 25.5574C150.851 25.223 150.935 24.8329 151.018 24.4428C151.046 24.3035 151.074 24.1363 151.102 23.997C151.13 23.8298 151.13 23.6905 151.13 23.5233C151.13 23.2447 151.074 22.9939 150.99 22.771ZM150.266 24.0806C150.238 24.2478 150.21 24.3871 150.182 24.5543C150.126 24.8329 150.071 25.0837 149.987 25.3345C149.931 25.5853 149.82 25.7803 149.681 25.9475C149.541 26.1147 149.374 26.254 149.179 26.3654C148.984 26.4769 148.705 26.5048 148.399 26.5048C148.037 26.5048 147.758 26.4212 147.591 26.2819C147.424 26.1425 147.34 25.8639 147.34 25.5017C147.34 25.3345 147.34 25.1673 147.368 25.028C147.396 24.8608 147.424 24.7215 147.452 24.5543C147.507 24.3035 147.563 24.0527 147.619 23.802C147.674 23.5791 147.786 23.3562 147.897 23.189C148.009 23.0218 148.176 22.8546 148.371 22.771C148.566 22.6596 148.817 22.6038 149.151 22.6038C149.513 22.6038 149.792 22.6874 149.987 22.8267C150.182 22.9661 150.294 23.2447 150.294 23.6348C150.294 23.7741 150.266 23.9134 150.266 24.0806Z" fill="black"/>
    <path fill-rule="evenodd" clip-rule="evenodd" d="M18.098 0H11.1765C9.58128 0 8.01174 1.31224 7.65151 2.90751L6.03051 9.98331C5.97905 10.1892 6.13343 10.4207 6.365 10.4207H15.8852C16.0396 10.4207 16.1939 10.3178 16.2197 10.1377L18.4325 0.437412C18.5096 0.231571 18.3295 0 18.098 0ZM14.4443 16.1586H4.92411C4.76973 16.1586 4.61535 16.2615 4.58962 16.4416L0.00964877 36.5626C-0.0160814 36.6655 0.00964906 36.7684 0.0868396 36.8713C0.16403 36.9485 0.24122 37 0.369871 37H6.77669C8.62926 37 10.5333 35.4819 10.945 33.6294L14.8045 16.6217C14.8302 16.5188 14.8045 16.4159 14.7273 16.3129C14.6501 16.21 14.5472 16.1586 14.4443 16.1586ZM30.7572 16.1586L21.237 16.1328C21.0827 16.1328 20.9283 16.2357 20.9026 16.4159L18.664 26.1419C18.6383 26.2448 18.664 26.3477 18.7412 26.4506C18.8184 26.5278 18.8956 26.5793 19.0243 26.5793H25.8428C27.438 26.5793 29.1105 25.2928 29.4964 23.7232L31.1432 16.6217C31.1689 16.5188 31.1432 16.4159 31.066 16.3129C30.9631 16.21 30.8859 16.1586 30.7572 16.1586ZM32.0695 0H24.9422C24.7878 0 24.6334 0.10292 24.6077 0.283032L22.3434 10.009C22.3177 10.112 22.3434 10.2149 22.4206 10.3178C22.4978 10.395 22.575 10.4465 22.7037 10.4465H32.2753C32.4297 10.4465 32.5841 10.3435 32.6098 10.1634L34.308 2.90751C34.6682 1.28651 33.6647 0 32.0695 0Z" fill="#CC0000"/>
    <path fill-rule="evenodd" clip-rule="evenodd" d="M59.7546 0.308754C59.7031 0.180103 59.5745 0.128643 59.3686 0.128643H48.4076C48.2017 0.128643 48.0473 0.180103 47.9702 0.283024C47.8672 0.385944 47.8158 0.514595 47.79 0.668976L44.9597 15.1808C44.934 15.3352 44.934 15.4638 45.0112 15.5667C45.0626 15.6697 45.217 15.6954 45.3971 15.6954H48.176C48.3818 15.6954 48.5105 15.6439 48.5877 15.5153C48.6649 15.3866 48.7163 15.2837 48.7421 15.1808L51.032 3.31919H55.4576L53.1677 15.1808C53.1419 15.3352 53.1419 15.4638 53.2191 15.5667C53.2706 15.6697 53.425 15.6954 53.6051 15.6954H56.3839C56.5898 15.6954 56.7441 15.6439 56.8213 15.5153C56.8985 15.3866 56.9243 15.2837 56.95 15.1808L59.7803 0.668976C59.806 0.540326 59.806 0.411674 59.7546 0.308754ZM71.1788 4.11682H68.5543C68.3485 4.11682 68.1941 4.16828 68.1169 4.29693C68.0397 4.42558 67.9882 4.5285 67.9625 4.63142L66.5731 11.8359C66.3158 11.9388 65.9556 12.0674 65.5181 12.2218C65.0807 12.3762 64.6948 12.4534 64.3345 12.4534C63.8457 12.4534 63.5112 12.3247 63.3568 12.0674C63.2024 11.8101 63.1767 11.347 63.3053 10.7037L64.4889 4.60569C64.5147 4.45131 64.5147 4.32266 64.4632 4.21974C64.4117 4.11682 64.2831 4.09109 64.0772 4.09109H61.427C61.1955 4.09109 61.0668 4.14255 60.9896 4.2712C60.9124 4.39985 60.861 4.50277 60.8352 4.60569L59.523 11.2955C59.4201 11.8873 59.3429 12.4534 59.2657 12.9937C59.2142 13.5341 59.2657 14.0229 59.3944 14.4346C59.523 14.8463 59.806 15.1808 60.2177 15.4381C60.6294 15.6954 61.2469 15.8241 62.0703 15.8241C62.6106 15.8241 63.2539 15.7211 63.9486 15.4896C64.669 15.258 65.338 14.9492 65.9556 14.5375L66.007 14.5633L65.8784 15.1293C65.8526 15.258 65.8784 15.3609 65.9041 15.4896C65.9298 15.5925 66.0585 15.6439 66.29 15.6439H68.9403C69.1461 15.6439 69.2747 15.5925 69.3519 15.5153C69.4291 15.4124 69.4806 15.3094 69.5063 15.1293L71.5647 4.60569C71.6934 4.29693 71.539 4.11682 71.1788 4.11682ZM81.265 8.95409C81.651 8.54241 82.0884 7.89916 82.5515 7.02433L83.7866 4.70861C83.8638 4.57996 83.8895 4.45131 83.8638 4.32266C83.838 4.19401 83.7094 4.14255 83.5035 4.14255H81.1364C80.8019 4.14255 80.5703 4.19401 80.4416 4.2712C80.313 4.34839 80.1843 4.5285 80.0557 4.76008L78.7949 6.94714C78.4862 7.48747 78.1774 7.8477 77.8944 7.97635C77.5856 8.13073 77.2768 8.20792 76.9423 8.20792H76.402L77.0967 4.63142C77.1225 4.5285 77.1225 4.42558 77.0967 4.29693C77.0453 4.19401 76.9423 4.14255 76.7365 4.14255H74.0606C73.8805 4.14255 73.7261 4.19401 73.6489 4.2712C73.546 4.37412 73.4945 4.47704 73.4688 4.63142L71.4361 15.2065C71.4104 15.3352 71.4104 15.4638 71.4618 15.5667C71.5133 15.6697 71.6419 15.6954 71.822 15.6954H74.498C74.7038 15.6954 74.8582 15.6439 74.9097 15.541C74.9611 15.4381 75.0126 15.3352 75.0383 15.2065L75.8102 11.1926H76.6593C76.9938 11.1926 77.3026 11.2955 77.6113 11.5014C77.9201 11.7072 78.1002 12.0932 78.1774 12.6592L78.4604 14.872C78.5119 15.1808 78.5633 15.3866 78.6663 15.5153C78.7435 15.6182 78.975 15.6697 79.361 15.6697H81.5223C81.7282 15.6697 81.8568 15.6182 81.934 15.4896C82.0112 15.3609 82.0369 15.2323 82.0112 15.1036L81.7024 12.6592C81.6252 11.9388 81.4709 11.3213 81.2136 10.8067C80.9563 10.2921 80.5703 9.93184 80.0042 9.77746L80.03 9.726C80.4416 9.64881 80.8791 9.36578 81.265 8.95409ZM93.7699 4.83727C93.7184 4.70861 93.5898 4.57996 93.3839 4.50277C92.9208 4.29693 92.3805 4.11682 91.7115 4.03963C91.0682 3.93671 90.4507 3.91098 89.8846 3.91098C88.7268 3.91098 87.7748 4.06536 87.0286 4.37412C86.2824 4.68289 85.6649 5.09457 85.2017 5.60917C84.7386 6.12377 84.3784 6.71557 84.1211 7.41028C83.8638 8.07927 83.6837 8.79971 83.5293 9.57162C83.4521 9.93184 83.4006 10.3178 83.3492 10.7295C83.2977 11.1412 83.2977 11.5271 83.2977 11.8616C83.2977 12.4019 83.3749 12.9165 83.5035 13.4054C83.6322 13.8943 83.8638 14.3317 84.1983 14.6919C84.5327 15.0779 84.9959 15.3609 85.5877 15.5925C86.1795 15.7983 86.9257 15.927 87.8262 15.927C88.1092 15.927 88.418 15.927 88.7268 15.9012C89.0355 15.8755 89.37 15.8498 89.7045 15.7983C90.039 15.7469 90.3478 15.6954 90.6565 15.6182C90.9653 15.541 91.2483 15.4638 91.4799 15.3866C91.8658 15.2323 92.0974 15.0779 92.2003 14.9492C92.2775 14.8206 92.329 14.589 92.329 14.306V12.968C92.329 12.7107 92.2775 12.5563 92.1746 12.5306C92.0717 12.5049 91.8916 12.5049 91.6343 12.5306C91.1197 12.5821 90.6308 12.6335 90.1419 12.6592C89.6531 12.685 89.2414 12.7107 88.9326 12.7107C88.3151 12.7107 87.8777 12.5821 87.5946 12.3247C87.3116 12.0674 87.1572 11.6558 87.1572 11.064C87.1572 10.8839 87.1572 10.7037 87.183 10.4979C87.2087 10.2921 87.2344 10.0605 87.2601 9.77746C87.4403 8.82544 87.7233 8.13073 88.1607 7.71905C88.5724 7.30736 89.1899 7.07579 89.9618 7.07579C90.322 7.07579 90.6823 7.10152 91.0425 7.12725C91.4027 7.15298 91.8144 7.20444 92.3033 7.2559C92.4576 7.28163 92.5863 7.28163 92.6892 7.28163C92.7921 7.28163 92.8951 7.28163 92.9465 7.2559C92.998 7.23017 93.0752 7.17871 93.1009 7.12725C93.1524 7.05006 93.2038 6.94714 93.2296 6.84422L93.667 5.40333C93.8213 5.14603 93.8213 4.96592 93.7699 4.83727ZM104.216 5.71209C103.985 5.32614 103.676 4.99165 103.316 4.73435C102.93 4.47704 102.492 4.29693 101.978 4.16828C101.463 4.03963 100.949 3.98817 100.408 3.98817C99.3019 3.98817 98.3756 4.14255 97.6294 4.42558C96.8832 4.73434 96.2657 5.1203 95.7511 5.58344C95.2622 6.07231 94.8506 6.61265 94.5933 7.20444C94.3102 7.79624 94.1044 8.38803 93.95 8.97983C93.8213 9.4687 93.7184 9.95757 93.6412 10.4722C93.564 10.9868 93.5126 11.4757 93.5126 11.9903C93.5126 12.685 93.6155 13.3025 93.8471 13.7914C94.0529 14.2802 94.3617 14.6919 94.7476 15.0264C95.1336 15.3352 95.5967 15.5668 96.1628 15.7211C96.7031 15.8498 97.3207 15.927 97.9896 15.927C98.3241 15.927 98.6586 15.927 99.0446 15.9012C99.4305 15.8755 99.7907 15.8498 100.177 15.7983C100.563 15.7469 100.923 15.6954 101.257 15.6439C101.592 15.5668 101.901 15.4896 102.158 15.3866C102.492 15.258 102.724 15.1293 102.827 15.0007C102.93 14.872 102.981 14.6405 102.981 14.3317V13.1996C102.981 12.9937 102.93 12.8651 102.827 12.8136C102.724 12.7622 102.57 12.7622 102.415 12.8136C101.772 12.8908 101.18 12.9423 100.691 12.968C100.202 12.9937 99.6878 13.0195 99.1475 13.0195C98.8645 13.0195 98.6072 13.0195 98.3756 12.9937C98.144 12.968 97.9382 12.9423 97.7581 12.8651C97.5779 12.8136 97.4493 12.7107 97.3721 12.5821C97.2692 12.4534 97.2435 12.299 97.2435 12.0674C97.2435 11.8616 97.2692 11.6558 97.3464 11.4757C98.0668 11.4499 98.8387 11.3727 99.6878 11.2441C100.537 11.1154 101.335 10.9096 102.055 10.6008C102.801 10.2921 103.393 9.85465 103.882 9.31432C104.371 8.74825 104.628 8.00208 104.628 7.10152C104.577 6.56119 104.448 6.09804 104.216 5.71209ZM100.46 8.25938C100.254 8.46522 99.9966 8.6196 99.6878 8.74825C99.3791 8.8769 99.0446 8.97983 98.6586 9.03129C98.2727 9.08275 97.9124 9.13421 97.578 9.15994C97.6551 8.90263 97.7581 8.6196 97.8353 8.33657C97.9382 8.05354 98.0668 7.79624 98.2212 7.56467C98.3756 7.33309 98.5814 7.15298 98.813 6.9986C99.0446 6.84422 99.3276 6.76703 99.6878 6.76703C100.022 6.76703 100.28 6.84422 100.46 6.97287C100.64 7.10152 100.717 7.28163 100.717 7.5132C100.768 7.82197 100.666 8.05354 100.46 8.25938ZM117.596 4.5285C117.596 4.42558 117.57 4.34839 117.519 4.2712C117.467 4.19401 117.339 4.14255 117.159 4.14255H110.417C110.031 4.14255 109.723 4.16828 109.465 4.24547C109.208 4.29693 108.976 4.42558 108.822 4.55423C108.642 4.70861 108.488 4.88873 108.385 5.14603C108.256 5.40333 108.153 5.71209 108.05 6.07231L106.841 10.8067C106.661 11.4757 106.403 12.016 106.069 12.4019C105.734 12.7879 105.246 13.0709 104.602 13.2253C104.371 13.3025 104.216 13.3797 104.139 13.4826C104.062 13.5598 104.01 13.6884 104.01 13.8686L104.113 15.5153C104.139 15.6954 104.165 15.8241 104.242 15.9012C104.319 15.9784 104.474 16.0299 104.705 16.0299C105.683 16.0299 106.506 15.9012 107.15 15.6182C107.793 15.3352 108.307 14.975 108.719 14.5118C109.105 14.0487 109.414 13.5083 109.645 12.8908C109.851 12.2733 110.057 11.63 110.237 10.9353L111.138 7.05006H113.556C113.299 8.43949 113.016 9.77746 112.759 11.1412C112.501 12.4791 112.218 13.8428 111.961 15.2323V15.3094C111.961 15.3352 111.961 15.3609 111.961 15.3609V15.3866C111.961 15.6182 112.116 15.7211 112.424 15.7211H115.023C115.255 15.7211 115.409 15.6697 115.486 15.5667C115.563 15.4638 115.615 15.3609 115.641 15.2323L117.673 4.63142V4.5285H117.596ZM127.425 8.105C127.09 7.87343 126.705 7.71905 126.267 7.61613C125.83 7.53893 125.367 7.48747 124.903 7.48747C124.415 7.48747 123.926 7.53893 123.488 7.61613C123.051 7.69332 122.588 7.82197 122.15 7.95062C122.15 7.92489 122.15 7.92489 122.125 7.92489C122.227 7.41028 122.33 6.89568 122.433 6.38108C122.536 5.86647 122.639 5.35187 122.716 4.83727C122.742 4.68288 122.768 4.57996 122.768 4.50277C122.768 4.24547 122.588 4.11682 122.253 4.11682H119.809C119.526 4.11682 119.346 4.16828 119.268 4.29693C119.191 4.42558 119.14 4.60569 119.088 4.863C118.78 6.38108 118.497 7.92489 118.214 9.44297C117.931 10.961 117.622 12.4791 117.313 14.0229C117.287 14.1001 117.287 14.1773 117.287 14.2288C117.287 14.2802 117.287 14.3574 117.287 14.4089C117.287 14.589 117.313 14.7177 117.39 14.8463C117.467 14.975 117.596 15.0779 117.776 15.1808C118.033 15.3094 118.368 15.4124 118.754 15.5153C119.14 15.6182 119.552 15.6954 119.963 15.7469C120.401 15.7983 120.838 15.8498 121.275 15.8755C121.739 15.9012 122.176 15.9012 122.588 15.9012C123.591 15.9012 124.466 15.7983 125.161 15.5667C125.855 15.3609 126.421 15.0521 126.885 14.6662C127.348 14.2802 127.708 13.8428 127.94 13.354C128.171 12.8394 128.351 12.299 128.454 11.733C128.48 11.6043 128.506 11.4242 128.531 11.2184C128.557 11.0125 128.557 10.8581 128.557 10.7295C128.557 10.0605 128.454 9.52016 128.248 9.08274C128.017 8.67106 127.759 8.33657 127.425 8.105ZM124.337 12.4791C124.106 12.8136 123.617 12.9937 122.896 12.9937C122.613 12.9937 122.33 12.9937 122.047 12.968C121.764 12.9423 121.507 12.9165 121.275 12.8908L121.713 10.6523C122.047 10.5494 122.33 10.4722 122.613 10.4207C122.871 10.3693 123.179 10.3435 123.54 10.3435C123.977 10.3435 124.286 10.4464 124.44 10.6266C124.595 10.8067 124.672 11.0382 124.698 11.2955C124.698 11.733 124.569 12.1446 124.337 12.4791ZM149.579 0.308754C149.527 0.180103 149.399 0.128643 149.193 0.128643H138.232C138.026 0.128643 137.871 0.180103 137.794 0.283024C137.691 0.385944 137.64 0.514595 137.614 0.668976L134.784 15.1808C134.758 15.3352 134.758 15.4638 134.835 15.5667C134.887 15.6697 135.041 15.6954 135.221 15.6954H138C138.206 15.6954 138.335 15.6439 138.412 15.5153C138.489 15.3866 138.54 15.2837 138.566 15.1808L140.856 3.31919H145.282L142.992 15.1808C142.966 15.3352 142.966 15.4638 143.043 15.5667C143.095 15.6697 143.249 15.6954 143.429 15.6954H146.182C146.388 15.6954 146.542 15.6439 146.62 15.5153C146.697 15.3866 146.723 15.2837 146.748 15.1808L149.579 0.668976C149.63 0.540326 149.604 0.411674 149.579 0.308754ZM161.672 4.5285C161.672 4.42558 161.646 4.34839 161.595 4.2712C161.543 4.19401 161.415 4.14255 161.234 4.14255H154.519C154.133 4.14255 153.824 4.16828 153.567 4.24547C153.31 4.29693 153.078 4.42558 152.924 4.55423C152.743 4.70861 152.589 4.88873 152.486 5.14603C152.358 5.40333 152.255 5.71209 152.152 6.07231L150.942 10.8067C150.762 11.4757 150.505 12.016 150.17 12.4019C149.836 12.7879 149.347 13.0709 148.704 13.2253C148.472 13.3025 148.318 13.3797 148.241 13.4826C148.163 13.5598 148.112 13.6884 148.112 13.8686L148.215 15.5153C148.241 15.6954 148.266 15.8241 148.344 15.9012C148.421 15.9784 148.575 16.0299 148.807 16.0299C149.785 16.0299 150.608 15.9012 151.251 15.6182C151.894 15.3352 152.409 14.975 152.821 14.5118C153.207 14.0487 153.515 13.5083 153.747 12.8908C153.953 12.2733 154.159 11.63 154.339 10.9353L155.239 7.05006H157.658C157.401 8.43949 157.118 9.77746 156.86 11.1412C156.603 12.4791 156.32 13.8428 156.063 15.2323V15.3094C156.063 15.3352 156.063 15.3609 156.063 15.3609V15.3866C156.063 15.6182 156.217 15.7211 156.526 15.7211H159.125C159.356 15.7211 159.51 15.6697 159.588 15.5667C159.665 15.4638 159.716 15.3609 159.742 15.2323L161.775 4.63142V4.5285H161.672ZM176.956 5.14603C176.595 4.76008 176.132 4.47704 175.566 4.24547C175 4.03963 174.28 3.91098 173.405 3.91098C172.479 3.91098 171.655 4.03963 170.986 4.29693C170.317 4.55423 169.751 4.91446 169.288 5.32614C168.825 5.73782 168.465 6.2267 168.182 6.7413C167.899 7.2559 167.693 7.77051 167.538 8.28511H166.303C166.432 7.66759 166.535 7.07579 166.663 6.45827C166.766 5.84074 166.895 5.22322 167.024 4.60569V4.45131C167.024 4.34839 166.998 4.2712 166.947 4.19401C166.895 4.11682 166.792 4.06536 166.612 4.06536H163.988C163.782 4.06536 163.627 4.11682 163.55 4.21974C163.473 4.32266 163.396 4.45131 163.37 4.60569L161.337 15.1036V15.258C161.337 15.4896 161.466 15.6182 161.723 15.6182H164.374C164.579 15.6182 164.734 15.5668 164.811 15.4638C164.888 15.3609 164.94 15.2323 164.965 15.1036C165.094 14.4089 165.223 13.7142 165.351 13.0195C165.48 12.3247 165.634 11.63 165.763 10.9353H167.049C167.049 11.0125 167.049 11.0897 167.049 11.1926C167.049 11.2955 167.049 11.3727 167.049 11.4499C167.049 12.0674 167.127 12.6592 167.307 13.1738C167.461 13.7142 167.718 14.1773 168.079 14.5633C168.439 14.9492 168.902 15.258 169.468 15.4638C170.034 15.6697 170.729 15.7983 171.526 15.7983C172.35 15.7983 173.07 15.7211 173.688 15.541C174.305 15.3609 174.82 15.1293 175.257 14.8206C175.695 14.5118 176.055 14.1516 176.338 13.7656C176.621 13.354 176.853 12.9423 177.033 12.4791C177.213 12.016 177.367 11.5528 177.47 11.0897C177.573 10.6266 177.676 10.1634 177.753 9.726C177.856 9.23713 177.908 8.64533 177.908 7.95062C177.908 7.41028 177.83 6.92141 177.702 6.40681C177.547 5.96939 177.316 5.53198 176.956 5.14603ZM174.125 9.90611C173.945 10.8581 173.688 11.5786 173.379 12.0417C173.07 12.5306 172.556 12.7622 171.861 12.7622C171.398 12.7622 171.063 12.6335 170.883 12.4019C170.703 12.1704 170.626 11.7844 170.626 11.2955C170.626 11.1154 170.652 10.9096 170.677 10.6523C170.703 10.4207 170.755 10.1634 170.806 9.90611C170.986 8.97983 171.243 8.25938 171.552 7.79624C171.861 7.33309 172.324 7.07579 172.942 7.07579C173.482 7.07579 173.842 7.20444 174.022 7.43601C174.202 7.66759 174.305 8.05354 174.305 8.54241C174.28 8.92836 174.228 9.39151 174.125 9.90611ZM189.1 4.83727C189.049 4.70861 188.92 4.57996 188.714 4.50277C188.251 4.29693 187.711 4.11682 187.042 4.03963C186.399 3.93671 185.781 3.91098 185.215 3.91098C184.057 3.91098 183.105 4.06536 182.359 4.37412C181.613 4.68289 180.995 5.09457 180.532 5.60917C180.069 6.12377 179.709 6.71557 179.451 7.41028C179.194 8.07927 179.014 8.79971 178.86 9.57162C178.782 9.93184 178.731 10.3178 178.679 10.7295C178.628 11.1412 178.628 11.5271 178.628 11.8616C178.628 12.4019 178.705 12.9165 178.834 13.4054C178.963 13.8943 179.194 14.3317 179.529 14.6919C179.863 15.0779 180.326 15.3609 180.918 15.5925C181.51 15.7983 182.256 15.927 183.157 15.927C183.44 15.927 183.748 15.927 184.057 15.9012C184.366 15.8755 184.7 15.8498 185.035 15.7983C185.369 15.7469 185.678 15.6954 185.987 15.6182C186.296 15.541 186.579 15.4638 186.81 15.3866C187.196 15.2323 187.428 15.0779 187.531 14.9492C187.608 14.8206 187.659 14.589 187.659 14.306V12.968C187.659 12.7107 187.608 12.5563 187.505 12.5306C187.402 12.5049 187.222 12.5049 186.965 12.5306C186.45 12.5821 185.961 12.6335 185.472 12.6592C184.983 12.685 184.572 12.7107 184.263 12.7107C183.645 12.7107 183.208 12.5821 182.925 12.3247C182.642 12.0674 182.488 11.6558 182.488 11.064C182.488 10.8839 182.488 10.7037 182.513 10.4979C182.539 10.2921 182.565 10.0605 182.59 9.77746C182.771 8.82544 183.054 8.13073 183.491 7.71905C183.903 7.30736 184.52 7.07579 185.292 7.07579C185.652 7.07579 186.013 7.10152 186.373 7.12725C186.733 7.15298 187.145 7.20444 187.634 7.2559C187.788 7.28163 187.917 7.28163 188.02 7.28163C188.122 7.28163 188.225 7.28163 188.277 7.2559C188.328 7.23017 188.405 7.17871 188.431 7.12725C188.483 7.05006 188.534 6.94714 188.56 6.84422L188.997 5.40333C189.152 5.14603 189.177 4.96592 189.1 4.83727Z" fill="black"/>
</svg>
