<?xml version="1.0" standalone="no"?>
<!DOCTYPE svg PUBLIC "-//W3C//DTD SVG 20010904//EN"
 "http://www.w3.org/TR/2001/REC-SVG-20010904/DTD/svg10.dtd">
<svg version="1.0" xmlns="http://www.w3.org/2000/svg"
 width="592.000000pt" height="592.000000pt" viewBox="0 0 592.000000 592.000000"
 preserveAspectRatio="xMidYMid meet">
<metadata>
Created by potrace 1.14, written by Peter Selinger 2001-2017
</metadata>
<g transform="translate(0.000000,592.000000) scale(0.100000,-0.100000)"
fill="#000000" stroke="none">
<path d="M1830 5905 c-138 -38 -275 -132 -347 -239 -15 -22 -32 -44 -36 -47
-5 -3 -9 -10 -9 -15 0 -5 -8 -25 -19 -45 -10 -20 -20 -47 -23 -60 -3 -13 -11
-49 -19 -79 -8 -30 -21 -82 -28 -115 -15 -73 -12 -57 -44 -195 -15 -63 -29
-124 -31 -135 -2 -11 -13 -60 -24 -110 -12 -49 -23 -97 -25 -105 -2 -8 -10
-45 -19 -81 -8 -37 -17 -78 -20 -90 -3 -13 -17 -73 -31 -134 -33 -134 -34
-171 -10 -189 15 -11 161 -13 789 -14 423 0 780 4 792 8 18 7 24 20 34 75 1 2
6 19 11 37 6 18 12 42 14 53 3 11 23 101 45 200 22 99 42 189 45 200 2 11 16
70 30 130 31 131 30 127 59 264 9 41 25 108 36 150 10 42 21 87 24 101 2 14
10 48 16 75 6 28 13 59 15 70 2 11 15 67 29 125 31 126 31 142 8 164 -17 15
-71 16 -618 15 -446 -1 -611 -4 -644 -14z"/>
<path d="M4114 5907 c-9 -11 -28 -73 -40 -131 -2 -11 -15 -67 -29 -125 -38
-162 -67 -284 -70 -301 -2 -8 -9 -37 -15 -65 -6 -27 -13 -57 -15 -66 -2 -9
-15 -65 -30 -125 -15 -60 -29 -120 -31 -134 -3 -13 -14 -63 -25 -110 -12 -47
-22 -94 -25 -105 -5 -24 -6 -32 -39 -165 -14 -58 -27 -120 -30 -138 -2 -18 -7
-37 -10 -42 -4 -6 -8 -23 -11 -38 -2 -15 -6 -37 -9 -48 -3 -12 3 -31 14 -43
l19 -22 787 0 c711 0 789 1 805 16 15 13 22 37 31 102 1 5 5 18 10 31 5 12 11
34 14 47 3 14 7 37 10 51 6 27 47 203 96 409 17 72 32 139 35 150 5 25 31 138
45 190 5 22 11 49 14 60 2 11 13 58 24 105 30 129 25 227 -17 312 -40 81 -100
137 -185 171 l-62 26 -625 0 c-487 0 -627 -2 -636 -12z"/>
<path d="M926 3327 c-19 -6 -27 -21 -41 -80 -10 -40 -19 -79 -20 -87 -1 -8 -5
-22 -7 -30 -5 -12 -38 -162 -53 -235 -9 -42 -36 -161 -45 -195 -14 -52 -70
-300 -76 -335 -2 -16 -9 -43 -14 -60 -5 -16 -14 -57 -21 -90 -7 -33 -14 -64
-15 -70 -14 -56 -79 -345 -90 -398 -7 -37 -15 -71 -18 -76 -3 -4 -8 -22 -11
-40 -3 -18 -15 -72 -26 -119 -11 -48 -22 -96 -25 -107 -2 -11 -6 -31 -9 -45
-3 -14 -7 -34 -10 -45 -2 -11 -20 -90 -40 -175 -70 -304 -99 -433 -109 -487
-3 -13 -7 -26 -9 -30 -3 -5 -8 -24 -11 -43 -3 -19 -8 -44 -10 -55 -33 -137
-62 -265 -72 -313 -3 -15 -12 -52 -20 -83 -18 -74 -18 -85 6 -109 20 -20 32
-20 583 -19 509 0 568 2 627 19 87 24 132 44 210 94 64 42 190 157 190 174 0
4 9 17 19 29 35 37 92 165 105 234 3 13 5 24 6 24 1 0 3 9 4 20 2 11 15 69 30
128 14 60 28 123 31 140 3 18 11 50 17 72 6 22 12 54 15 70 2 17 8 44 13 60 5
17 18 75 30 130 12 55 32 145 45 200 13 55 27 115 30 134 3 19 8 37 10 41 2 4
7 22 10 41 5 30 10 52 30 134 3 11 8 36 11 55 3 19 8 38 10 41 4 7 27 112 48
214 2 11 9 38 14 60 6 22 13 51 16 65 3 14 8 36 11 50 3 14 8 36 11 50 3 13
14 63 25 110 12 47 23 98 26 114 2 16 9 40 14 54 5 14 8 27 5 29 -2 3 2 22 9
44 8 21 12 39 10 39 -3 0 -1 10 4 23 5 13 12 39 15 58 3 19 10 49 15 68 6 18
10 36 9 40 0 3 1 8 2 11 2 6 6 24 13 60 3 14 19 84 35 155 46 197 46 197 24
225 l-20 25 -771 0 c-424 0 -782 -4 -795 -8z"/>
<path d="M3526 3327 c-9 -7 -29 -68 -46 -142 -17 -71 -39 -166 -50 -210 -10
-44 -21 -92 -24 -108 -3 -15 -7 -35 -10 -45 -3 -9 -8 -30 -11 -47 -8 -39 -13
-60 -15 -60 -1 0 -4 -13 -6 -30 -3 -16 -14 -66 -25 -110 -11 -44 -22 -90 -24
-101 -3 -12 -19 -81 -35 -154 -16 -73 -32 -142 -35 -154 -2 -11 -11 -48 -19
-81 -8 -33 -17 -72 -20 -88 -3 -15 -7 -35 -10 -45 -3 -9 -8 -28 -10 -42 -3
-14 -14 -63 -25 -109 -18 -76 -18 -86 -4 -107 9 -15 26 -24 42 -25 112 -3
1151 0 1171 4 185 37 331 134 438 289 18 26 32 54 32 62 0 9 4 16 9 16 5 0 11
10 14 23 2 12 12 49 21 82 8 33 17 69 19 80 2 11 8 38 14 60 6 22 15 63 21 90
6 28 23 100 38 160 14 61 28 121 31 135 9 44 11 55 13 55 1 0 3 9 5 20 3 19
29 136 41 180 2 11 7 31 9 45 7 37 40 177 57 241 20 73 5 118 -39 120 -15 1
-371 3 -790 4 -566 2 -766 0 -777 -8z"/>
</g>
</svg>
